<?xml version="1.0" encoding="utf-8"?>
<!-- Generator: Adobe Illustrator 16.0.0, SVG Export Plug-In . SVG Version: 6.00 Build 0)  -->
<!DOCTYPE svg PUBLIC "-//W3C//DTD SVG 1.1//EN" "http://www.w3.org/Graphics/SVG/1.1/DTD/svg11.dtd">
<svg version="1.1" id="Layer_1" xmlns="http://www.w3.org/2000/svg" xmlns:xlink="http://www.w3.org/1999/xlink" x="0px" y="0px"
	 width="1296px" height="504px" viewBox="0 0 1296 504" enable-background="new 0 0 1296 504" xml:space="preserve">
<path fill="none" stroke="#000000" stroke-width="0.5" stroke-miterlimit="10" d="M688.904,200.528c0,2.484-2.016,4.5-4.5,4.5h-45
	c-2.486,0-4.5-2.016-4.5-4.5v-45c0-2.486,2.014-4.5,4.5-4.5h45c2.484,0,4.5,2.014,4.5,4.5V200.528z"/>
<path fill="none" stroke="#000000" stroke-width="0.5" stroke-miterlimit="10" d="M681.424,191.448c0,1.885-1.434,3.414-3.201,3.414
	h-32.014c-1.768,0-3.201-1.529-3.201-3.414v-34.133c0-1.885,1.434-3.412,3.201-3.412h32.014c1.768,0,3.201,1.527,3.201,3.412
	V191.448z"/>
<path fill="none" stroke="#000000" stroke-width="0.5" stroke-miterlimit="10" d="M745.863,200.604c0,2.486-2.016,4.5-4.5,4.5h-45
	c-2.486,0-4.5-2.014-4.5-4.5v-45c0-2.484,2.014-4.5,4.5-4.5h45c2.484,0,4.5,2.016,4.5,4.5V200.604z"/>
<path fill="none" stroke="#000000" stroke-width="0.5" stroke-miterlimit="10" d="M738.383,191.526c0,1.885-1.434,3.412-3.201,3.412
	h-32.014c-1.768,0-3.201-1.527-3.201-3.412v-34.133c0-1.885,1.434-3.414,3.201-3.414h32.014c1.768,0,3.201,1.529,3.201,3.414
	V191.526z"/>
<path fill="none" stroke="#000000" stroke-width="0.5" stroke-miterlimit="10" d="M157.627,256.192c0,2.486-2.015,4.5-4.5,4.5h-45
	c-2.485,0-4.5-2.014-4.5-4.5v-45c0-2.484,2.015-4.5,4.5-4.5h45c2.485,0,4.5,2.016,4.5,4.5V256.192z"/>
<path fill="none" stroke="#000000" stroke-width="0.5" stroke-miterlimit="10" d="M149.835,247.114c0,1.885-1.433,3.412-3.201,3.412
	H114.62c-1.768,0-3.201-1.527-3.201-3.412v-34.133c0-1.885,1.433-3.414,3.201-3.414h32.014c1.768,0,3.201,1.529,3.201,3.414V247.114
	z"/>
<path fill="none" stroke="#000000" stroke-width="0.5" stroke-miterlimit="10" d="M213.583,256.116c0,2.484-2.015,4.5-4.5,4.5h-45
	c-2.485,0-4.5-2.016-4.5-4.5v-45c0-2.486,2.015-4.5,4.5-4.5h45c2.485,0,4.5,2.014,4.5,4.5V256.116z"/>
<path fill="none" stroke="#000000" stroke-width="0.5" stroke-miterlimit="10" d="M206.103,247.036c0,1.885-1.433,3.414-3.201,3.414
	h-32.014c-1.768,0-3.201-1.529-3.201-3.414v-34.133c0-1.885,1.433-3.412,3.201-3.412h32.014c1.768,0,3.201,1.527,3.201,3.412
	V247.036z"/>
<path fill="none" stroke="#000000" stroke-width="0.5" stroke-miterlimit="10" d="M269.538,256.116c0,2.484-2.015,4.5-4.5,4.5h-45
	c-2.485,0-4.5-2.016-4.5-4.5v-45c0-2.486,2.015-4.5,4.5-4.5h45c2.485,0,4.5,2.014,4.5,4.5V256.116z"/>
<path fill="none" stroke="#000000" stroke-width="0.5" stroke-miterlimit="10" d="M262.059,247.036c0,1.885-1.434,3.414-3.201,3.414
	h-32.014c-1.769,0-3.201-1.529-3.201-3.414v-34.133c0-1.885,1.433-3.412,3.201-3.412h32.014c1.768,0,3.201,1.527,3.201,3.412
	V247.036z"/>
<path fill="none" stroke="#000000" stroke-width="0.5" stroke-miterlimit="10" d="M325.494,256.231c0,2.485-2.015,4.5-4.5,4.5h-45
	c-2.485,0-4.5-2.015-4.5-4.5v-45c0-2.485,2.015-4.5,4.5-4.5h45c2.485,0,4.5,2.015,4.5,4.5V256.231z"/>
<path fill="none" stroke="#000000" stroke-width="0.5" stroke-miterlimit="10" d="M317.702,247.152c0,1.885-1.433,3.413-3.201,3.413
	h-32.014c-1.768,0-3.201-1.528-3.201-3.413V213.02c0-1.885,1.433-3.413,3.201-3.413H314.5c1.768,0,3.201,1.528,3.201,3.413V247.152z
	"/>
<path fill="none" stroke="#000000" stroke-width="0.5" stroke-miterlimit="10" d="M381.449,256.154c0,2.485-2.015,4.5-4.5,4.5h-45
	c-2.485,0-4.5-2.015-4.5-4.5v-45c0-2.485,2.015-4.5,4.5-4.5h45c2.485,0,4.5,2.015,4.5,4.5V256.154z"/>
<path fill="none" stroke="#000000" stroke-width="0.5" stroke-miterlimit="10" d="M373.97,247.075c0,1.885-1.433,3.413-3.201,3.413
	h-32.014c-1.768,0-3.201-1.528-3.201-3.413v-34.133c0-1.885,1.433-3.413,3.201-3.413h32.014c1.768,0,3.201,1.528,3.201,3.413
	V247.075z"/>
<path fill="none" stroke="#000000" stroke-width="0.5" stroke-miterlimit="10" d="M437.404,256.154c0,2.485-2.014,4.5-4.5,4.5
	h-44.999c-2.485,0-4.5-2.015-4.5-4.5v-45c0-2.485,2.015-4.5,4.5-4.5h44.999c2.486,0,4.5,2.015,4.5,4.5V256.154z"/>
<path fill="none" stroke="#000000" stroke-width="0.5" stroke-miterlimit="10" d="M429.926,247.075c0,1.885-1.434,3.413-3.201,3.413
	h-32.014c-1.768,0-3.201-1.528-3.201-3.413v-34.133c0-1.885,1.433-3.413,3.201-3.413h32.014c1.768,0,3.201,1.528,3.201,3.413
	V247.075z"/>
<path fill="none" stroke="#000000" stroke-width="0.5" stroke-miterlimit="10" d="M493.361,256.271c0,2.484-2.016,4.5-4.5,4.5
	H443.86c-2.484,0-4.5-2.016-4.5-4.5v-45c0-2.486,2.016-4.5,4.5-4.5h45.001c2.484,0,4.5,2.014,4.5,4.5V256.271z"/>
<path fill="none" stroke="#000000" stroke-width="0.5" stroke-miterlimit="10" d="M485.568,247.19c0,1.885-1.432,3.414-3.201,3.414
	h-32.013c-1.768,0-3.201-1.529-3.201-3.414v-34.133c0-1.885,1.434-3.412,3.201-3.412h32.013c1.77,0,3.201,1.527,3.201,3.412V247.19z
	"/>
<path fill="none" stroke="#000000" stroke-width="0.5" stroke-miterlimit="10" d="M549.316,256.192c0,2.486-2.016,4.5-4.5,4.5h-45
	c-2.486,0-4.5-2.014-4.5-4.5v-45c0-2.484,2.014-4.5,4.5-4.5h45c2.484,0,4.5,2.016,4.5,4.5V256.192z"/>
<path fill="none" stroke="#000000" stroke-width="0.5" stroke-miterlimit="10" d="M541.835,247.114c0,1.885-1.432,3.412-3.201,3.412
	h-32.014c-1.768,0-3.201-1.527-3.201-3.412v-34.133c0-1.885,1.434-3.414,3.201-3.414h32.014c1.77,0,3.201,1.529,3.201,3.414V247.114
	z"/>
<path fill="none" stroke="#000000" stroke-width="0.5" stroke-miterlimit="10" d="M605.271,256.192c0,2.486-2.016,4.5-4.5,4.5h-45
	c-2.486,0-4.5-2.014-4.5-4.5v-45c0-2.484,2.014-4.5,4.5-4.5h45c2.484,0,4.5,2.016,4.5,4.5V256.192z"/>
<path fill="none" stroke="#000000" stroke-width="0.5" stroke-miterlimit="10" d="M597.791,247.114c0,1.885-1.432,3.412-3.201,3.412
	h-32.014c-1.768,0-3.201-1.527-3.201-3.412v-34.133c0-1.885,1.434-3.414,3.201-3.414h32.014c1.77,0,3.201,1.529,3.201,3.414V247.114
	z"/>
<path fill="none" stroke="#000000" stroke-width="0.5" stroke-miterlimit="10" d="M661.228,256.309c0,2.485-2.016,4.5-4.5,4.5
	h-45.001c-2.486,0-4.5-2.015-4.5-4.5v-45c0-2.485,2.014-4.5,4.5-4.5h45.001c2.484,0,4.5,2.015,4.5,4.5V256.309z"/>
<path fill="none" stroke="#000000" stroke-width="0.5" stroke-miterlimit="10" d="M653.435,247.229c0,1.885-1.432,3.413-3.201,3.413
	h-32.015c-1.768,0-3.201-1.528-3.201-3.413v-34.133c0-1.885,1.434-3.413,3.201-3.413h32.015c1.77,0,3.201,1.528,3.201,3.413V247.229
	z"/>
<path fill="none" stroke="#000000" stroke-width="0.5" stroke-miterlimit="10" d="M717.183,256.231c0,2.485-2.016,4.5-4.5,4.5h-45
	c-2.486,0-4.5-2.015-4.5-4.5v-45c0-2.485,2.014-4.5,4.5-4.5h45c2.484,0,4.5,2.015,4.5,4.5V256.231z"/>
<path fill="none" stroke="#000000" stroke-width="0.5" stroke-miterlimit="10" d="M709.702,247.152c0,1.885-1.434,3.413-3.201,3.413
	h-32.014c-1.768,0-3.201-1.528-3.201-3.413V213.02c0-1.885,1.434-3.413,3.201-3.413h32.014c1.768,0,3.201,1.528,3.201,3.413V247.152
	z"/>
<path fill="none" stroke="#000000" stroke-width="0.5" stroke-miterlimit="10" d="M773.139,256.231c0,2.485-2.016,4.5-4.5,4.5h-45
	c-2.486,0-4.5-2.015-4.5-4.5v-45c0-2.485,2.014-4.5,4.5-4.5h45c2.484,0,4.5,2.015,4.5,4.5V256.231z"/>
<path fill="none" stroke="#000000" stroke-width="0.5" stroke-miterlimit="10" d="M765.658,247.152c0,1.885-1.434,3.413-3.201,3.413
	h-32.014c-1.768,0-3.201-1.528-3.201-3.413V213.02c0-1.885,1.434-3.413,3.201-3.413h32.014c1.768,0,3.201,1.528,3.201,3.413V247.152
	z"/>
<path fill="none" stroke="#000000" stroke-width="0.5" stroke-miterlimit="10" d="M169.252,311.993c0,2.485-2.015,4.5-4.5,4.5h-45
	c-2.485,0-4.5-2.015-4.5-4.5v-45c0-2.485,2.015-4.5,4.5-4.5h45c2.485,0,4.5,2.015,4.5,4.5V311.993z"/>
<path fill="none" stroke="#000000" stroke-width="0.5" stroke-miterlimit="10" d="M161.46,302.914c0,1.885-1.433,3.413-3.201,3.413
	h-32.014c-1.768,0-3.201-1.528-3.201-3.413v-34.133c0-1.885,1.433-3.413,3.201-3.413h32.014c1.768,0,3.201,1.528,3.201,3.413
	V302.914z"/>
<path fill="none" stroke="#000000" stroke-width="0.5" stroke-miterlimit="10" d="M225.211,311.916c0,2.485-2.015,4.5-4.5,4.5h-45
	c-2.485,0-4.5-2.015-4.5-4.5v-45c0-2.485,2.015-4.5,4.5-4.5h45c2.485,0,4.5,2.015,4.5,4.5V311.916z"/>
<path fill="none" stroke="#000000" stroke-width="0.5" stroke-miterlimit="10" d="M217.732,302.837c0,1.885-1.433,3.413-3.201,3.413
	h-32.014c-1.768,0-3.201-1.528-3.201-3.413v-34.133c0-1.885,1.433-3.413,3.201-3.413h32.014c1.768,0,3.201,1.528,3.201,3.413
	V302.837z"/>
<path fill="none" stroke="#000000" stroke-width="0.5" stroke-miterlimit="10" d="M281.17,311.916c0,2.485-2.015,4.5-4.5,4.5h-45
	c-2.485,0-4.5-2.015-4.5-4.5v-45c0-2.485,2.015-4.5,4.5-4.5h45c2.485,0,4.5,2.015,4.5,4.5V311.916z"/>
<path fill="none" stroke="#000000" stroke-width="0.5" stroke-miterlimit="10" d="M273.691,302.837c0,1.885-1.434,3.413-3.201,3.413
	h-32.014c-1.769,0-3.201-1.528-3.201-3.413v-34.133c0-1.885,1.433-3.413,3.201-3.413h32.014c1.768,0,3.201,1.528,3.201,3.413
	V302.837z"/>
<path fill="none" stroke="#000000" stroke-width="0.5" stroke-miterlimit="10" d="M337.129,312.032c0,2.484-2.015,4.5-4.5,4.5h-45
	c-2.485,0-4.5-2.016-4.5-4.5v-45c0-2.486,2.015-4.5,4.5-4.5h45c2.485,0,4.5,2.014,4.5,4.5V312.032z"/>
<path fill="none" stroke="#000000" stroke-width="0.5" stroke-miterlimit="10" d="M329.337,302.952c0,1.885-1.433,3.414-3.201,3.414
	h-32.014c-1.768,0-3.201-1.529-3.201-3.414v-34.133c0-1.885,1.433-3.412,3.201-3.412h32.014c1.768,0,3.201,1.527,3.201,3.412
	V302.952z"/>
<path fill="none" stroke="#000000" stroke-width="0.5" stroke-miterlimit="10" d="M393.088,311.954c0,2.486-2.015,4.5-4.5,4.5h-45
	c-2.485,0-4.5-2.014-4.5-4.5v-45c0-2.484,2.015-4.5,4.5-4.5h45c2.485,0,4.5,2.016,4.5,4.5V311.954z"/>
<path fill="none" stroke="#000000" stroke-width="0.5" stroke-miterlimit="10" d="M385.608,302.876c0,1.885-1.433,3.412-3.201,3.412
	h-32.014c-1.768,0-3.201-1.527-3.201-3.412v-34.133c0-1.885,1.433-3.414,3.201-3.414h32.014c1.768,0,3.201,1.529,3.201,3.414
	V302.876z"/>
<path fill="none" stroke="#000000" stroke-width="0.5" stroke-miterlimit="10" d="M449.047,311.954c0,2.486-2.016,4.5-4.5,4.5h-45
	c-2.485,0-4.5-2.014-4.5-4.5v-45c0-2.484,2.015-4.5,4.5-4.5h45c2.484,0,4.5,2.016,4.5,4.5V311.954z"/>
<path fill="none" stroke="#000000" stroke-width="0.5" stroke-miterlimit="10" d="M441.567,302.876c0,1.885-1.434,3.412-3.201,3.412
	h-32.013c-1.768,0-3.201-1.527-3.201-3.412v-34.133c0-1.885,1.433-3.414,3.201-3.414h32.013c1.768,0,3.201,1.529,3.201,3.414
	V302.876z"/>
<path fill="none" stroke="#000000" stroke-width="0.5" stroke-miterlimit="10" d="M505.005,312.07c0,2.485-2.014,4.5-4.5,4.5
	h-45.001c-2.484,0-4.5-2.015-4.5-4.5v-45c0-2.485,2.016-4.5,4.5-4.5h45.001c2.486,0,4.5,2.015,4.5,4.5V312.07z"/>
<path fill="none" stroke="#000000" stroke-width="0.5" stroke-miterlimit="10" d="M497.214,302.991c0,1.885-1.434,3.413-3.201,3.413
	H462c-1.768,0-3.201-1.528-3.201-3.413v-34.133c0-1.885,1.434-3.413,3.201-3.413h32.014c1.768,0,3.201,1.528,3.201,3.413V302.991z"
	/>
<path fill="none" stroke="#000000" stroke-width="0.5" stroke-miterlimit="10" d="M560.964,311.993c0,2.485-2.014,4.5-4.5,4.5h-45
	c-2.484,0-4.5-2.015-4.5-4.5v-45c0-2.485,2.016-4.5,4.5-4.5h45c2.486,0,4.5,2.015,4.5,4.5V311.993z"/>
<path fill="none" stroke="#000000" stroke-width="0.5" stroke-miterlimit="10" d="M553.486,302.914c0,1.885-1.434,3.413-3.201,3.413
	h-32.014c-1.77,0-3.201-1.528-3.201-3.413v-34.133c0-1.885,1.432-3.413,3.201-3.413h32.014c1.768,0,3.201,1.528,3.201,3.413V302.914
	z"/>
<path fill="none" stroke="#000000" stroke-width="0.5" stroke-miterlimit="10" d="M616.923,311.993c0,2.485-2.014,4.5-4.5,4.5h-45
	c-2.484,0-4.5-2.015-4.5-4.5v-45c0-2.485,2.016-4.5,4.5-4.5h45c2.486,0,4.5,2.015,4.5,4.5V311.993z"/>
<path fill="none" stroke="#000000" stroke-width="0.5" stroke-miterlimit="10" d="M609.445,302.914c0,1.885-1.434,3.413-3.201,3.413
	H574.23c-1.77,0-3.201-1.528-3.201-3.413v-34.133c0-1.885,1.432-3.413,3.201-3.413h32.014c1.768,0,3.201,1.528,3.201,3.413V302.914z
	"/>
<path fill="none" stroke="#000000" stroke-width="0.5" stroke-miterlimit="10" d="M672.883,312.108c0,2.486-2.014,4.5-4.5,4.5h-45
	c-2.485,0-4.5-2.014-4.5-4.5v-45c0-2.484,2.016-4.5,4.5-4.5h45c2.486,0,4.5,2.016,4.5,4.5V312.108z"/>
<path fill="none" stroke="#000000" stroke-width="0.5" stroke-miterlimit="10" d="M665.092,303.03c0,1.885-1.434,3.412-3.201,3.412
	h-32.014c-1.77,0-3.201-1.527-3.201-3.412v-34.133c0-1.885,1.432-3.414,3.201-3.414h32.014c1.768,0,3.201,1.529,3.201,3.414V303.03z
	"/>
<path fill="none" stroke="#000000" stroke-width="0.5" stroke-miterlimit="10" d="M728.842,312.032c0,2.484-2.016,4.5-4.5,4.5h-45
	c-2.484,0-4.5-2.016-4.5-4.5v-45c0-2.486,2.016-4.5,4.5-4.5h45c2.484,0,4.5,2.014,4.5,4.5V312.032z"/>
<path fill="none" stroke="#000000" stroke-width="0.5" stroke-miterlimit="10" d="M721.361,302.952c0,1.885-1.432,3.414-3.199,3.414
	h-32.014c-1.77,0-3.201-1.529-3.201-3.414v-34.133c0-1.885,1.432-3.412,3.201-3.412h32.014c1.768,0,3.199,1.527,3.199,3.412V302.952
	z"/>
<path fill="none" stroke="#000000" stroke-width="0.5" stroke-miterlimit="10" d="M196.252,367.747c0,2.486-2.015,4.5-4.5,4.5h-45
	c-2.485,0-4.5-2.014-4.5-4.5v-45c0-2.485,2.015-4.5,4.5-4.5h45c2.485,0,4.5,2.015,4.5,4.5V367.747z"/>
<path fill="none" stroke="#000000" stroke-width="0.5" stroke-miterlimit="10" d="M188.46,358.669c0,1.885-1.433,3.412-3.201,3.412
	h-32.014c-1.768,0-3.201-1.527-3.201-3.412v-34.134c0-1.885,1.433-3.413,3.201-3.413h32.014c1.768,0,3.201,1.528,3.201,3.413
	V358.669z"/>
<path fill="none" stroke="#000000" stroke-width="0.5" stroke-miterlimit="10" d="M252,367.671c0,2.484-2.015,4.5-4.5,4.5h-45
	c-2.485,0-4.5-2.016-4.5-4.5V322.67c0-2.485,2.015-4.5,4.5-4.5h45c2.485,0,4.5,2.015,4.5,4.5V367.671z"/>
<path fill="none" stroke="#000000" stroke-width="0.5" stroke-miterlimit="10" d="M244.521,358.591c0,1.885-1.433,3.414-3.201,3.414
	h-32.014c-1.768,0-3.201-1.529-3.201-3.414v-34.133c0-1.885,1.433-3.413,3.201-3.413h32.014c1.768,0,3.201,1.528,3.201,3.413
	V358.591z"/>
<path fill="none" stroke="#000000" stroke-width="0.5" stroke-miterlimit="10" d="M307.959,367.671c0,2.484-2.015,4.5-4.5,4.5h-45
	c-2.485,0-4.5-2.016-4.5-4.5V322.67c0-2.485,2.015-4.5,4.5-4.5h45c2.485,0,4.5,2.015,4.5,4.5V367.671z"/>
<path fill="none" stroke="#000000" stroke-width="0.5" stroke-miterlimit="10" d="M300.48,358.591c0,1.885-1.434,3.414-3.201,3.414
	h-32.014c-1.769,0-3.201-1.529-3.201-3.414v-34.133c0-1.885,1.433-3.413,3.201-3.413h32.014c1.768,0,3.201,1.528,3.201,3.413
	V358.591z"/>
<path fill="none" stroke="#000000" stroke-width="0.5" stroke-miterlimit="10" d="M363.918,367.786c0,2.484-2.015,4.5-4.5,4.5h-45
	c-2.485,0-4.5-2.016-4.5-4.5v-45c0-2.486,2.015-4.5,4.5-4.5h45c2.485,0,4.5,2.014,4.5,4.5V367.786z"/>
<path fill="none" stroke="#000000" stroke-width="0.5" stroke-miterlimit="10" d="M356.126,358.706c0,1.885-1.433,3.414-3.201,3.414
	h-32.014c-1.768,0-3.201-1.529-3.201-3.414v-34.133c0-1.885,1.433-3.412,3.201-3.412h32.014c1.768,0,3.201,1.527,3.201,3.412
	V358.706z"/>
<path fill="none" stroke="#000000" stroke-width="0.5" stroke-miterlimit="10" d="M419.877,367.708c0,2.486-2.016,4.5-4.5,4.5h-45
	c-2.485,0-4.5-2.014-4.5-4.5v-45c0-2.484,2.015-4.5,4.5-4.5h45c2.484,0,4.5,2.016,4.5,4.5V367.708z"/>
<path fill="none" stroke="#000000" stroke-width="0.5" stroke-miterlimit="10" d="M412.397,358.63c0,1.885-1.433,3.412-3.201,3.412
	h-32.014c-1.768,0-3.201-1.527-3.201-3.412v-34.133c0-1.885,1.433-3.414,3.201-3.414h32.014c1.768,0,3.201,1.529,3.201,3.414V358.63
	z"/>
<path fill="none" stroke="#000000" stroke-width="0.5" stroke-miterlimit="10" d="M475.835,367.708c0,2.486-2.014,4.5-4.5,4.5
	h-44.999c-2.486,0-4.5-2.014-4.5-4.5v-45c0-2.484,2.014-4.5,4.5-4.5h44.999c2.486,0,4.5,2.016,4.5,4.5V367.708z"/>
<path fill="none" stroke="#000000" stroke-width="0.5" stroke-miterlimit="10" d="M468.357,358.63c0,1.885-1.434,3.412-3.201,3.412
	h-32.015c-1.768,0-3.201-1.527-3.201-3.412v-34.133c0-1.885,1.434-3.414,3.201-3.414h32.015c1.768,0,3.201,1.529,3.201,3.414V358.63
	z"/>
<path fill="none" stroke="#000000" stroke-width="0.5" stroke-miterlimit="10" d="M531.794,367.825c0,2.484-2.014,4.5-4.5,4.5h-45
	c-2.484,0-4.5-2.016-4.5-4.5v-45.001c0-2.485,2.016-4.5,4.5-4.5h45c2.486,0,4.5,2.015,4.5,4.5V367.825z"/>
<path fill="none" stroke="#000000" stroke-width="0.5" stroke-miterlimit="10" d="M524.003,358.745c0,1.885-1.434,3.414-3.201,3.414
	h-32.014c-1.768,0-3.201-1.529-3.201-3.414v-34.133c0-1.885,1.434-3.413,3.201-3.413h32.014c1.768,0,3.201,1.528,3.201,3.413
	V358.745z"/>
<path fill="none" stroke="#000000" stroke-width="0.5" stroke-miterlimit="10" d="M587.753,367.747c0,2.486-2.014,4.5-4.5,4.5h-45
	c-2.484,0-4.5-2.014-4.5-4.5v-45c0-2.485,2.016-4.5,4.5-4.5h45c2.486,0,4.5,2.015,4.5,4.5V367.747z"/>
<path fill="none" stroke="#000000" stroke-width="0.5" stroke-miterlimit="10" d="M580.275,358.669c0,1.885-1.434,3.412-3.201,3.412
	H545.06c-1.77,0-3.201-1.527-3.201-3.412v-34.134c0-1.885,1.432-3.413,3.201-3.413h32.014c1.768,0,3.201,1.528,3.201,3.413V358.669z
	"/>
<path fill="none" stroke="#000000" stroke-width="0.5" stroke-miterlimit="10" d="M643.713,367.747c0,2.486-2.014,4.5-4.5,4.5h-45
	c-2.484,0-4.5-2.014-4.5-4.5v-45c0-2.485,2.016-4.5,4.5-4.5h45c2.486,0,4.5,2.015,4.5,4.5V367.747z"/>
<path fill="none" stroke="#000000" stroke-width="0.5" stroke-miterlimit="10" d="M636.234,358.669c0,1.885-1.434,3.412-3.201,3.412
	h-32.014c-1.77,0-3.201-1.527-3.201-3.412v-34.134c0-1.885,1.432-3.413,3.201-3.413h32.014c1.768,0,3.201,1.528,3.201,3.413V358.669
	z"/>
<path fill="none" stroke="#000000" stroke-width="0.5" stroke-miterlimit="10" d="M699.672,367.862c0,2.486-2.014,4.5-4.5,4.5h-45
	c-2.484,0-4.5-2.014-4.5-4.5v-45c0-2.484,2.016-4.5,4.5-4.5h45c2.486,0,4.5,2.016,4.5,4.5V367.862z"/>
<path fill="none" stroke="#000000" stroke-width="0.5" stroke-miterlimit="10" d="M691.881,358.784c0,1.885-1.434,3.412-3.201,3.412
	h-32.014c-1.77,0-3.201-1.527-3.201-3.412v-34.133c0-1.885,1.432-3.414,3.201-3.414h32.014c1.768,0,3.201,1.529,3.201,3.414V358.784
	z"/>
<path fill="none" stroke="#000000" stroke-width="0.5" stroke-miterlimit="10" d="M568.583,423.534c0,2.485-2.014,4.5-4.495,4.5
	H236.684c-2.482,0-4.495-2.015-4.495-4.5v-45.058c0-2.485,2.013-4.5,4.495-4.5h327.405c2.481,0,4.495,2.015,4.495,4.5V423.534z"/>
<path fill="none" stroke="#000000" stroke-width="0.5" stroke-miterlimit="10" d="M560.719,381.365c0-2.485-2.023-4.5-4.521-4.5
	H244.036c-2.497,0-4.521,2.015-4.521,4.5v31.959c0,2.485,2.024,4.5,4.521,4.5h312.163c2.497,0,4.521-2.015,4.521-4.5V381.365z"/>
<path fill="none" stroke="#000000" stroke-width="0.5" stroke-miterlimit="10" d="M74.356,125.185c0,2.485-2.015,4.5-4.5,4.5h-45
	c-2.485,0-4.5-2.015-4.5-4.5v-45c0-2.485,2.015-4.5,4.5-4.5h45c2.485,0,4.5,2.015,4.5,4.5V125.185z"/>
<path fill="none" stroke="#000000" stroke-width="0.5" stroke-miterlimit="10" d="M66.564,116.105c0,1.885-1.433,3.413-3.201,3.413
	H31.349c-1.768,0-3.201-1.528-3.201-3.413V81.973c0-1.885,1.433-3.413,3.201-3.413h32.014c1.768,0,3.201,1.528,3.201,3.413V116.105z
	"/>
<path fill="none" stroke="#000000" stroke-width="0.5" stroke-miterlimit="10" d="M186.274,125.107c0,2.485-2.015,4.5-4.5,4.5h-45
	c-2.485,0-4.5-2.015-4.5-4.5v-45c0-2.485,2.015-4.5,4.5-4.5h45c2.485,0,4.5,2.015,4.5,4.5V125.107z"/>
<path fill="none" stroke="#000000" stroke-width="0.5" stroke-miterlimit="10" d="M178.794,116.028c0,1.885-1.434,3.413-3.201,3.413
	H143.58c-1.769,0-3.201-1.528-3.201-3.413V81.896c0-1.885,1.433-3.413,3.201-3.413h32.014c1.768,0,3.201,1.528,3.201,3.413V116.028z
	"/>
<path fill="none" stroke="#000000" stroke-width="0.5" stroke-miterlimit="10" d="M242.232,125.224c0,2.484-2.015,4.5-4.5,4.5h-45
	c-2.485,0-4.5-2.016-4.5-4.5v-45c0-2.486,2.015-4.5,4.5-4.5h45c2.485,0,4.5,2.014,4.5,4.5V125.224z"/>
<path fill="none" stroke="#000000" stroke-width="0.5" stroke-miterlimit="10" d="M234.44,116.144c0,1.885-1.433,3.414-3.201,3.414
	h-32.014c-1.768,0-3.201-1.529-3.201-3.414V82.011c0-1.885,1.433-3.412,3.201-3.412h32.014c1.768,0,3.201,1.527,3.201,3.412V116.144
	z"/>
<path fill="none" stroke="#000000" stroke-width="0.5" stroke-miterlimit="10" d="M298.191,125.146c0,2.486-2.015,4.5-4.5,4.5h-45
	c-2.485,0-4.5-2.014-4.5-4.5v-45c0-2.484,2.015-4.5,4.5-4.5h45c2.485,0,4.5,2.016,4.5,4.5V125.146z"/>
<path fill="none" stroke="#000000" stroke-width="0.5" stroke-miterlimit="10" d="M290.712,116.067c0,1.885-1.433,3.412-3.201,3.412
	h-32.014c-1.768,0-3.201-1.527-3.201-3.412V81.935c0-1.885,1.433-3.414,3.201-3.414h32.014c1.768,0,3.201,1.529,3.201,3.414V116.067
	z"/>
<path fill="none" stroke="#000000" stroke-width="0.5" stroke-miterlimit="10" d="M354.15,125.146c0,2.486-2.015,4.5-4.5,4.5h-45
	c-2.485,0-4.5-2.014-4.5-4.5v-45c0-2.484,2.015-4.5,4.5-4.5h45c2.485,0,4.5,2.016,4.5,4.5V125.146z"/>
<path fill="none" stroke="#000000" stroke-width="0.5" stroke-miterlimit="10" d="M346.671,116.067c0,1.885-1.433,3.412-3.201,3.412
	h-32.014c-1.768,0-3.201-1.527-3.201-3.412V81.935c0-1.885,1.433-3.414,3.201-3.414h32.014c1.768,0,3.201,1.529,3.201,3.414V116.067
	z"/>
<path fill="none" stroke="#000000" stroke-width="0.5" stroke-miterlimit="10" d="M424.252,125.319c0,2.485-2.016,4.5-4.5,4.5h-45
	c-2.485,0-4.5-2.015-4.5-4.5v-45c0-2.485,2.015-4.5,4.5-4.5h45c2.484,0,4.5,2.015,4.5,4.5V125.319z"/>
<path fill="none" stroke="#000000" stroke-width="0.5" stroke-miterlimit="10" d="M416.772,116.24c0,1.885-1.432,3.413-3.201,3.413
	h-32.013c-1.768,0-3.201-1.528-3.201-3.413V82.107c0-1.885,1.433-3.413,3.201-3.413h32.013c1.77,0,3.201,1.528,3.201,3.413V116.24z"
	/>
<path fill="none" stroke="#000000" stroke-width="0.5" stroke-miterlimit="10" d="M480.21,125.319c0,2.485-2.014,4.5-4.5,4.5
	h-44.999c-2.486,0-4.5-2.015-4.5-4.5v-45c0-2.485,2.014-4.5,4.5-4.5h44.999c2.486,0,4.5,2.015,4.5,4.5V125.319z"/>
<path fill="none" stroke="#000000" stroke-width="0.5" stroke-miterlimit="10" d="M472.732,116.24c0,1.885-1.434,3.413-3.201,3.413
	h-32.015c-1.768,0-3.201-1.528-3.201-3.413V82.107c0-1.885,1.434-3.413,3.201-3.413h32.015c1.768,0,3.201,1.528,3.201,3.413V116.24z
	"/>
<path fill="none" stroke="#000000" stroke-width="0.5" stroke-miterlimit="10" d="M536.169,125.435c0,2.486-2.014,4.5-4.5,4.5h-45
	c-2.484,0-4.5-2.014-4.5-4.5v-45c0-2.484,2.016-4.5,4.5-4.5h45c2.486,0,4.5,2.016,4.5,4.5V125.435z"/>
<path fill="none" stroke="#000000" stroke-width="0.5" stroke-miterlimit="10" d="M528.378,116.356c0,1.885-1.434,3.412-3.201,3.412
	h-32.014c-1.768,0-3.201-1.527-3.201-3.412V82.224c0-1.885,1.434-3.414,3.201-3.414h32.014c1.768,0,3.201,1.529,3.201,3.414V116.356
	z"/>
<path fill="none" stroke="#000000" stroke-width="0.5" stroke-miterlimit="10" d="M592.128,125.358c0,2.484-2.016,4.5-4.5,4.5h-45
	c-2.484,0-4.5-2.016-4.5-4.5v-45c0-2.486,2.016-4.5,4.5-4.5h45c2.484,0,4.5,2.014,4.5,4.5V125.358z"/>
<path fill="none" stroke="#000000" stroke-width="0.5" stroke-miterlimit="10" d="M584.648,116.278c0,1.885-1.432,3.414-3.199,3.414
	h-32.014c-1.77,0-3.201-1.529-3.201-3.414V82.146c0-1.885,1.432-3.412,3.201-3.412h32.014c1.768,0,3.199,1.527,3.199,3.412V116.278z
	"/>
<path fill="none" stroke="#000000" stroke-width="0.5" stroke-miterlimit="10" d="M661.434,125.377c0,2.485-2.014,4.5-4.5,4.5h-45
	c-2.484,0-4.5-2.015-4.5-4.5v-45c0-2.485,2.016-4.5,4.5-4.5h45c2.486,0,4.5,2.015,4.5,4.5V125.377z"/>
<path fill="none" stroke="#000000" stroke-width="0.5" stroke-miterlimit="10" d="M653.955,116.298c0,1.885-1.434,3.413-3.201,3.413
	H618.74c-1.768,0-3.201-1.528-3.201-3.413V82.165c0-1.885,1.434-3.413,3.201-3.413h32.014c1.768,0,3.201,1.528,3.201,3.413V116.298z
	"/>
<path fill="none" stroke="#000000" stroke-width="0.5" stroke-miterlimit="10" d="M717.393,125.377c0,2.485-2.014,4.5-4.5,4.5h-45
	c-2.484,0-4.5-2.015-4.5-4.5v-45c0-2.485,2.016-4.5,4.5-4.5h45c2.486,0,4.5,2.015,4.5,4.5V125.377z"/>
<path fill="none" stroke="#000000" stroke-width="0.5" stroke-miterlimit="10" d="M709.914,116.298c0,1.885-1.434,3.413-3.201,3.413
	h-32.014c-1.768,0-3.201-1.528-3.201-3.413V82.165c0-1.885,1.434-3.413,3.201-3.413h32.014c1.768,0,3.201,1.528,3.201,3.413V116.298
	z"/>
<path fill="none" stroke="#000000" stroke-width="0.5" stroke-miterlimit="10" d="M773.352,125.493c0,2.484-2.014,4.5-4.5,4.5h-45
	c-2.484,0-4.5-2.016-4.5-4.5v-45c0-2.486,2.016-4.5,4.5-4.5h45c2.486,0,4.5,2.014,4.5,4.5V125.493z"/>
<path fill="none" stroke="#000000" stroke-width="0.5" stroke-miterlimit="10" d="M765.561,116.413c0,1.885-1.434,3.414-3.201,3.414
	h-32.014c-1.768,0-3.201-1.529-3.201-3.414V82.28c0-1.885,1.434-3.412,3.201-3.412h32.014c1.768,0,3.201,1.527,3.201,3.412V116.413z
	"/>
<path fill="none" stroke="#000000" stroke-width="0.5" stroke-miterlimit="10" d="M829.311,125.415c0,2.486-2.016,4.5-4.5,4.5h-45
	c-2.484,0-4.5-2.014-4.5-4.5v-45c0-2.484,2.016-4.5,4.5-4.5h45c2.484,0,4.5,2.016,4.5,4.5V125.415z"/>
<path fill="none" stroke="#000000" stroke-width="0.5" stroke-miterlimit="10" d="M821.83,116.337c0,1.885-1.432,3.412-3.199,3.412
	h-32.014c-1.77,0-3.201-1.527-3.201-3.412V82.204c0-1.885,1.432-3.414,3.201-3.414h32.014c1.768,0,3.199,1.529,3.199,3.414V116.337z
	"/>
<path fill="none" stroke="#000000" stroke-width="0.5" stroke-miterlimit="10" d="M907.367,125.185c0,2.485-2.014,4.5-4.5,4.5h-45
	c-2.484,0-4.5-2.015-4.5-4.5v-45c0-2.485,2.016-4.5,4.5-4.5h45c2.486,0,4.5,2.015,4.5,4.5V125.185z"/>
<path fill="none" stroke="#000000" stroke-width="0.5" stroke-miterlimit="10" d="M899.889,116.105c0,1.885-1.434,3.413-3.201,3.413
	h-32.014c-1.768,0-3.201-1.528-3.201-3.413V81.973c0-1.885,1.434-3.413,3.201-3.413h32.014c1.768,0,3.201,1.528,3.201,3.413V116.105
	z"/>
<path fill="none" stroke="#000000" stroke-width="0.5" stroke-miterlimit="10" d="M963.326,125.3c0,2.486-2.014,4.5-4.5,4.5h-45
	c-2.484,0-4.5-2.014-4.5-4.5v-45c0-2.484,2.016-4.5,4.5-4.5h45c2.486,0,4.5,2.016,4.5,4.5V125.3z"/>
<path fill="none" stroke="#000000" stroke-width="0.5" stroke-miterlimit="10" d="M955.535,116.222c0,1.885-1.434,3.412-3.201,3.412
	H920.32c-1.768,0-3.201-1.527-3.201-3.412V82.089c0-1.885,1.434-3.414,3.201-3.414h32.014c1.768,0,3.201,1.529,3.201,3.414V116.222z
	"/>
<path fill="none" stroke="#000000" stroke-width="0.5" stroke-miterlimit="10" d="M1019.285,125.224c0,2.484-2.016,4.5-4.5,4.5h-45
	c-2.484,0-4.5-2.016-4.5-4.5v-45c0-2.486,2.016-4.5,4.5-4.5h45c2.484,0,4.5,2.014,4.5,4.5V125.224z"/>
<path fill="none" stroke="#000000" stroke-width="0.5" stroke-miterlimit="10" d="M1011.805,116.144
	c0,1.885-1.432,3.414-3.199,3.414h-32.014c-1.77,0-3.201-1.529-3.201-3.414V82.011c0-1.885,1.432-3.412,3.201-3.412h32.014
	c1.768,0,3.199,1.527,3.199,3.412V116.144z"/>
<path fill="none" stroke="#000000" stroke-width="0.5" stroke-miterlimit="10" d="M907.369,200.742c0,2.485-2.014,4.5-4.5,4.5h-45
	c-2.484,0-4.5-2.015-4.5-4.5v-45c0-2.485,2.016-4.5,4.5-4.5h45c2.486,0,4.5,2.015,4.5,4.5V200.742z"/>
<path fill="none" stroke="#000000" stroke-width="0.5" stroke-miterlimit="10" d="M900.551,192.324c0,1.885-1.434,3.413-3.201,3.413
	h-32.014c-1.768,0-3.201-1.528-3.201-3.413v-34.133c0-1.885,1.434-3.413,3.201-3.413h32.014c1.768,0,3.201,1.528,3.201,3.413
	V192.324z"/>
<path fill="none" stroke="#000000" stroke-width="0.5" stroke-miterlimit="10" d="M963.328,200.858c0,2.484-2.014,4.5-4.5,4.5h-45
	c-2.484,0-4.5-2.016-4.5-4.5v-45c0-2.486,2.016-4.5,4.5-4.5h45c2.486,0,4.5,2.014,4.5,4.5V200.858z"/>
<path fill="none" stroke="#000000" stroke-width="0.5" stroke-miterlimit="10" d="M956.197,192.44c0,1.885-1.434,3.412-3.201,3.412
	h-32.014c-1.768,0-3.201-1.527-3.201-3.412v-34.133c0-1.885,1.434-3.414,3.201-3.414h32.014c1.768,0,3.201,1.529,3.201,3.414V192.44
	z"/>
<path fill="none" stroke="#000000" stroke-width="0.5" stroke-miterlimit="10" d="M1019.287,200.742c0,2.486-2.016,4.5-4.5,4.5h-45
	c-2.484,0-4.5-2.014-4.5-4.5v-45c0-2.484,2.016-4.5,4.5-4.5h45c2.484,0,4.5,2.016,4.5,4.5V200.742z"/>
<path fill="none" stroke="#000000" stroke-width="0.5" stroke-miterlimit="10" d="M1011.807,191.664
	c0,1.885-1.432,3.412-3.199,3.412h-32.014c-1.77,0-3.201-1.527-3.201-3.412v-34.133c0-1.885,1.432-3.414,3.201-3.414h32.014
	c1.768,0,3.199,1.529,3.199,3.414V191.664z"/>
<path fill="none" stroke="#000000" stroke-width="0.5" stroke-miterlimit="10" d="M907.367,256.475c0,2.484-2.014,4.5-4.5,4.5h-45
	c-2.484,0-4.5-2.016-4.5-4.5v-45c0-2.486,2.016-4.5,4.5-4.5h45c2.486,0,4.5,2.014,4.5,4.5V256.475z"/>
<path fill="none" stroke="#000000" stroke-width="0.5" stroke-miterlimit="10" d="M899.889,247.395c0,1.885-1.434,3.414-3.201,3.414
	h-32.014c-1.768,0-3.201-1.529-3.201-3.414v-34.133c0-1.885,1.434-3.412,3.201-3.412h32.014c1.768,0,3.201,1.527,3.201,3.412
	V247.395z"/>
<path fill="none" stroke="#000000" stroke-width="0.5" stroke-miterlimit="10" d="M963.326,256.59c0,2.485-2.014,4.5-4.5,4.5h-45
	c-2.484,0-4.5-2.015-4.5-4.5v-45c0-2.485,2.016-4.5,4.5-4.5h45c2.486,0,4.5,2.015,4.5,4.5V256.59z"/>
<path fill="none" stroke="#000000" stroke-width="0.5" stroke-miterlimit="10" d="M955.535,247.511c0,1.885-1.434,3.413-3.201,3.413
	H920.32c-1.768,0-3.201-1.528-3.201-3.413v-34.133c0-1.885,1.434-3.413,3.201-3.413h32.014c1.768,0,3.201,1.528,3.201,3.413V247.511
	z"/>
<path fill="none" stroke="#000000" stroke-width="0.5" stroke-miterlimit="10" d="M1019.285,256.513c0,2.485-2.016,4.5-4.5,4.5h-45
	c-2.484,0-4.5-2.015-4.5-4.5v-45c0-2.485,2.016-4.5,4.5-4.5h45c2.484,0,4.5,2.015,4.5,4.5V256.513z"/>
<path fill="none" stroke="#000000" stroke-width="0.5" stroke-miterlimit="10" d="M1011.805,247.434
	c0,1.885-1.432,3.413-3.199,3.413h-32.014c-1.77,0-3.201-1.528-3.201-3.413v-34.133c0-1.885,1.432-3.413,3.201-3.413h32.014
	c1.768,0,3.199,1.528,3.199,3.413V247.434z"/>
<path fill="none" stroke="#000000" stroke-width="0.5" stroke-miterlimit="10" d="M963.333,367.921c0,2.484-2.014,4.5-4.5,4.5h-45
	c-2.484,0-4.5-2.016-4.5-4.5v-45c0-2.486,2.016-4.5,4.5-4.5h45c2.486,0,4.5,2.014,4.5,4.5V367.921z"/>
<path fill="none" stroke="#000000" stroke-width="0.5" stroke-miterlimit="10" d="M955.542,358.841c0,1.885-1.434,3.414-3.201,3.414
	h-32.014c-1.77,0-3.201-1.529-3.201-3.414v-34.133c0-1.885,1.432-3.412,3.201-3.412h32.014c1.768,0,3.201,1.527,3.201,3.412V358.841
	z"/>
<path fill="none" stroke="#000000" stroke-width="0.5" stroke-miterlimit="10" d="M907.375,423.558c0,2.484-2.014,4.5-4.5,4.5h-45
	c-2.484,0-4.5-2.016-4.5-4.5v-45c0-2.486,2.016-4.5,4.5-4.5h45c2.486,0,4.5,2.014,4.5,4.5V423.558z"/>
<path fill="none" stroke="#000000" stroke-width="0.5" stroke-miterlimit="10" d="M899.896,414.478c0,1.885-1.434,3.414-3.201,3.414
	h-32.014c-1.768,0-3.201-1.529-3.201-3.414v-34.133c0-1.885,1.434-3.412,3.201-3.412h32.014c1.768,0,3.201,1.527,3.201,3.412
	V414.478z"/>
<path fill="none" stroke="#000000" stroke-width="0.5" stroke-miterlimit="10" d="M963.334,423.673c0,2.485-2.014,4.5-4.5,4.5h-45
	c-2.484,0-4.5-2.015-4.5-4.5v-45c0-2.485,2.016-4.5,4.5-4.5h45c2.486,0,4.5,2.015,4.5,4.5V423.673z"/>
<path fill="none" stroke="#000000" stroke-width="0.5" stroke-miterlimit="10" d="M955.543,414.594c0,1.885-1.434,3.413-3.201,3.413
	h-32.014c-1.768,0-3.201-1.528-3.201-3.413v-34.133c0-1.885,1.434-3.413,3.201-3.413h32.014c1.768,0,3.201,1.528,3.201,3.413
	V414.594z"/>
<path fill="none" stroke="#000000" stroke-width="0.5" stroke-miterlimit="10" d="M1019.293,423.596c0,2.485-2.016,4.5-4.5,4.5h-45
	c-2.484,0-4.5-2.015-4.5-4.5v-45c0-2.485,2.016-4.5,4.5-4.5h45c2.484,0,4.5,2.015,4.5,4.5V423.596z"/>
<path fill="none" stroke="#000000" stroke-width="0.5" stroke-miterlimit="10" d="M1011.812,414.517
	c0,1.885-1.432,3.413-3.199,3.413H976.6c-1.77,0-3.201-1.528-3.201-3.413v-34.133c0-1.885,1.432-3.413,3.201-3.413h32.014
	c1.768,0,3.199,1.528,3.199,3.413V414.517z"/>
<path fill="none" stroke="#000000" stroke-width="0.5" stroke-miterlimit="10" d="M19.712,312.177c0,2.485,2.015,4.5,4.5,4.5h83.958
	c2.485,0,4.5-2.015,4.5-4.5v-45c0-2.485-2.015-4.5-4.5-4.5H24.212c-2.485,0-4.5,2.015-4.5,4.5V312.177z"/>
<path fill="none" stroke="#000000" stroke-width="0.5" stroke-miterlimit="10" d="M139.67,367.854c0,2.485-2.015,4.5-4.5,4.5H24.212
	c-2.485,0-4.5-2.015-4.5-4.5v-44.924c0-2.485,2.015-4.5,4.5-4.5H135.17c2.485,0,4.5,2.015,4.5,4.5V367.854z"/>
<path fill="none" stroke="#000000" stroke-width="0.5" stroke-miterlimit="10" d="M19.712,211.376c0-2.484,2.026-4.5,4.525-4.5H97.1
	c2.499,0,4.525,2.016,4.525,4.5v45c0,2.486-2.026,4.5-4.525,4.5H24.237c-2.499,0-4.525-2.014-4.525-4.5V211.376z"/>
<path fill="none" stroke="#000000" stroke-width="0.5" stroke-miterlimit="10" d="M93.706,245.967c0,2.485-2.026,4.5-4.525,4.5
	H32.073c-2.499,0-4.525-2.015-4.525-4.5v-31.882c0-2.485,2.026-4.5,4.525-4.5h57.108c2.499,0,4.525,2.015,4.525,4.5V245.967z"/>
<path fill="none" stroke="#000000" stroke-width="0.5" stroke-miterlimit="10" d="M104.545,301.934c0,2.485-2.015,4.5-4.5,4.5
	H32.004c-2.485,0-4.5-2.015-4.5-4.5v-31.959c0-2.485,2.015-4.5,4.5-4.5h68.041c2.485,0,4.5,2.015,4.5,4.5V301.934z"/>
<path fill="none" stroke="#000000" stroke-width="0.5" stroke-miterlimit="10" d="M131.984,358.477c0,2.485-2.015,4.5-4.5,4.5
	H32.004c-2.485,0-4.5-2.015-4.5-4.5v-32.671c0-2.485,2.015-4.5,4.5-4.5h95.479c2.485,0,4.5,2.015,4.5,4.5V358.477z"/>
<path fill="none" stroke="#000000" stroke-width="0.5" stroke-miterlimit="10" d="M88.75,423.535c0,2.485-1.942,4.5-4.337,4.5
	H24.171c-2.396,0-4.337-2.015-4.337-4.5V378.66c0-2.485,1.942-4.5,4.337-4.5h60.242c2.396,0,4.337,2.015,4.337,4.5V423.535z"/>
<path fill="none" stroke="#000000" stroke-width="0.5" stroke-miterlimit="10" d="M26.822,413.508c0,2.485,1.925,4.5,4.299,4.5
	h46.462c2.375,0,4.3-2.015,4.3-4.5v-31.959c0-2.485-1.925-4.5-4.3-4.5H31.121c-2.375,0-4.299,2.015-4.299,4.5V413.508z"/>
<path fill="none" stroke="#000000" stroke-width="0.5" stroke-miterlimit="10" d="M159.469,423.535c0,2.485-1.942,4.5-4.337,4.5
	H94.89c-2.396,0-4.337-2.015-4.337-4.5V378.66c0-2.485,1.942-4.5,4.337-4.5h60.242c2.396,0,4.337,2.015,4.337,4.5V423.535z"/>
<path fill="none" stroke="#000000" stroke-width="0.5" stroke-miterlimit="10" d="M97.541,413.508c0,2.485,1.925,4.5,4.299,4.5
	h46.462c2.375,0,4.3-2.015,4.3-4.5v-31.959c0-2.485-1.925-4.5-4.3-4.5H101.84c-2.375,0-4.299,2.015-4.299,4.5V413.508z"/>
<path fill="none" stroke="#000000" stroke-width="0.5" stroke-miterlimit="10" d="M230.188,423.535c0,2.485-1.942,4.5-4.337,4.5
	h-60.242c-2.396,0-4.337-2.015-4.337-4.5V378.66c0-2.485,1.942-4.5,4.337-4.5h60.242c2.396,0,4.337,2.015,4.337,4.5V423.535z"/>
<path fill="none" stroke="#000000" stroke-width="0.5" stroke-miterlimit="10" d="M168.26,413.508c0,2.485,1.925,4.5,4.299,4.5
	h46.462c2.375,0,4.3-2.015,4.3-4.5v-31.959c0-2.485-1.925-4.5-4.3-4.5H172.56c-2.375,0-4.299,2.015-4.299,4.5V413.508z"/>
<path fill="none" stroke="#000000" stroke-width="0.5" stroke-miterlimit="10" d="M73.812,200.745c0,2.485-2.015,4.5-4.5,4.5h-45
	c-2.485,0-4.5-2.015-4.5-4.5v-45c0-2.485,2.015-4.5,4.5-4.5h45c2.485,0,4.5,2.015,4.5,4.5V200.745z"/>
<path fill="none" stroke="#000000" stroke-width="0.5" stroke-miterlimit="10" d="M66.021,191.666c0,1.885-1.433,3.413-3.201,3.413
	H30.806c-1.768,0-3.201-1.528-3.201-3.413v-34.133c0-1.885,1.433-3.413,3.201-3.413h32.014c1.768,0,3.201,1.528,3.201,3.413V191.666
	z"/>
<path fill="none" stroke="#000000" stroke-width="0.5" stroke-miterlimit="10" d="M829.094,256.413c0,2.485-2.016,4.5-4.5,4.5h-45
	c-2.486,0-4.5-2.015-4.5-4.5v-45c0-2.485,2.014-4.5,4.5-4.5h45c2.484,0,4.5,2.015,4.5,4.5V256.413z"/>
<path fill="none" stroke="#000000" stroke-width="0.5" stroke-miterlimit="10" d="M821.613,247.334c0,1.885-1.434,3.413-3.201,3.413
	h-32.014c-1.768,0-3.201-1.528-3.201-3.413v-34.133c0-1.885,1.434-3.413,3.201-3.413h32.014c1.768,0,3.201,1.528,3.201,3.413
	V247.334z"/>
<path fill="none" stroke="#000000" stroke-width="0.5" stroke-miterlimit="10" d="M829.094,312.137c0,2.484-2.016,4.5-4.5,4.5
	h-89.445c-2.486,0-4.5-2.016-4.5-4.5v-44.924c0-2.484,2.014-4.5,4.5-4.5h89.445c2.484,0,4.5,2.016,4.5,4.5V312.137z"/>
<path fill="none" stroke="#000000" stroke-width="0.5" stroke-miterlimit="10" d="M829.094,200.709c0,2.486-2.016,4.5-4.5,4.5
	h-72.445c-2.484,0-4.5-2.014-4.5-4.5v-45c0-2.484,2.016-4.5,4.5-4.5h72.445c2.484,0,4.5,2.016,4.5,4.5V200.709z"/>
<path fill="none" stroke="#000000" stroke-width="0.5" stroke-miterlimit="10" d="M821.613,190.543c0,2.486-1.996,4.5-4.455,4.5
	h-57.971c-2.461,0-4.455-2.014-4.455-4.5v-31.959c0-2.484,1.994-4.5,4.455-4.5h57.971c2.459,0,4.455,2.016,4.455,4.5V190.543z"/>
<path fill="none" stroke="#000000" stroke-width="0.5" stroke-miterlimit="10" d="M821.613,301.971c0,2.484-2.016,4.5-4.5,4.5
	H741.73c-2.484,0-4.5-2.016-4.5-4.5v-31.959c0-2.486,2.016-4.5,4.5-4.5h75.383c2.484,0,4.5,2.014,4.5,4.5V301.971z"/>
<path fill="none" stroke="#000000" stroke-width="0.5" stroke-miterlimit="10" d="M829.094,367.967c0,2.485-2.016,4.5-4.5,4.5
	H706.301c-2.486,0-4.5-2.015-4.5-4.5v-45c0-2.484,2.014-4.5,4.5-4.5h118.293c2.484,0,4.5,2.016,4.5,4.5V367.967z"/>
<path fill="none" stroke="#000000" stroke-width="0.5" stroke-miterlimit="10" d="M821.613,357.801c0,2.485-1.977,4.5-4.414,4.5
	H713.73c-2.438,0-4.416-2.015-4.416-4.5v-31.959c0-2.484,1.979-4.5,4.416-4.5h103.469c2.438,0,4.414,2.016,4.414,4.5V357.801z"/>
<path fill="none" stroke="#000000" stroke-width="0.5" stroke-miterlimit="10" d="M771.398,423.576c0,2.485,2.014,4.5,4.5,4.5
	h48.695c2.484,0,4.5-2.015,4.5-4.5v-44.75c0-2.485-2.016-4.5-4.5-4.5h-48.695c-2.486,0-4.5,2.015-4.5,4.5V423.576z"/>
<path fill="none" stroke="#000000" stroke-width="0.5" stroke-miterlimit="10" d="M821.398,413.535c0,2.485-2.016,4.5-4.5,4.5h-33
	c-2.486,0-4.5-2.015-4.5-4.5v-31.959c0-2.484,2.014-4.5,4.5-4.5h33c2.484,0,4.5,2.016,4.5,4.5V413.535z"/>
<path fill="none" stroke="#000000" stroke-width="0.5" stroke-miterlimit="10" d="M711.953,423.576c0,2.485,2.014,4.5,4.5,4.5
	h48.695c2.484,0,4.5-2.015,4.5-4.5v-44.75c0-2.485-2.016-4.5-4.5-4.5h-48.695c-2.486,0-4.5,2.015-4.5,4.5V423.576z"/>
<path fill="none" stroke="#000000" stroke-width="0.5" stroke-miterlimit="10" d="M761.953,413.535c0,2.485-2.016,4.5-4.5,4.5h-33
	c-2.486,0-4.5-2.015-4.5-4.5v-31.959c0-2.484,2.014-4.5,4.5-4.5h33c2.484,0,4.5,2.016,4.5,4.5V413.535z"/>
<path fill="none" stroke="#000000" stroke-width="0.5" stroke-miterlimit="10" d="M639.498,423.639c0,2.485-1.943,4.5-4.338,4.5
	h-60.243c-2.395,0-4.337-2.015-4.337-4.5v-44.875c0-2.485,1.942-4.5,4.337-4.5h60.243c2.395,0,4.338,2.015,4.338,4.5V423.639z"/>
<path fill="none" stroke="#000000" stroke-width="0.5" stroke-miterlimit="10" d="M577.569,413.611c0,2.485,1.925,4.5,4.3,4.5
	h46.461c2.375,0,4.301-2.015,4.301-4.5v-31.959c0-2.485-1.926-4.5-4.301-4.5h-46.461c-2.375,0-4.3,2.015-4.3,4.5V413.611z"/>
<path fill="none" stroke="#000000" stroke-width="0.5" stroke-miterlimit="10" d="M710.217,423.639c0,2.485-1.941,4.5-4.338,4.5
	h-60.242c-2.395,0-4.336-2.015-4.336-4.5v-44.875c0-2.485,1.941-4.5,4.336-4.5h60.242c2.396,0,4.338,2.015,4.338,4.5V423.639z"/>
<path fill="none" stroke="#000000" stroke-width="0.5" stroke-miterlimit="10" d="M648.289,413.611c0,2.485,1.924,4.5,4.299,4.5
	h46.461c2.375,0,4.301-2.015,4.301-4.5v-31.959c0-2.485-1.926-4.5-4.301-4.5h-46.461c-2.375,0-4.299,2.015-4.299,4.5V413.611z"/>
<path fill="none" stroke="#000000" stroke-width="0.5" stroke-miterlimit="10" d="M521.124,200.878c0,2.486-2.015,4.5-4.5,4.5h-45
	c-2.485,0-4.5-2.014-4.5-4.5v-45c0-2.484,2.015-4.5,4.5-4.5h45c2.485,0,4.5,2.016,4.5,4.5V200.878z"/>
<path fill="none" stroke="#000000" stroke-width="0.5" stroke-miterlimit="10" d="M513.332,191.8c0,1.885-1.433,3.412-3.201,3.412
	h-32.014c-1.768,0-3.201-1.527-3.201-3.412v-34.133c0-1.885,1.434-3.414,3.201-3.414h32.014c1.769,0,3.201,1.529,3.201,3.414V191.8z
	"/>
<path fill="none" stroke="#000000" stroke-width="0.5" stroke-miterlimit="10" d="M129.878,200.84c0,2.485-2.015,4.5-4.5,4.5h-45
	c-2.485,0-4.5-2.015-4.5-4.5v-45c0-2.485,2.015-4.5,4.5-4.5h45c2.485,0,4.5,2.015,4.5,4.5V200.84z"/>
<path fill="none" stroke="#000000" stroke-width="0.5" stroke-miterlimit="10" d="M122.398,191.761c0,1.885-1.433,3.413-3.201,3.413
	H87.184c-1.769,0-3.201-1.528-3.201-3.413v-34.133c0-1.885,1.433-3.413,3.201-3.413h32.014c1.769,0,3.201,1.528,3.201,3.413V191.761
	z"/>
<path fill="none" stroke="#000000" stroke-width="0.5" stroke-miterlimit="10" d="M185.837,200.84c0,2.485-2.015,4.5-4.5,4.5h-45
	c-2.485,0-4.5-2.015-4.5-4.5v-45c0-2.485,2.015-4.5,4.5-4.5h45c2.485,0,4.5,2.015,4.5,4.5V200.84z"/>
<path fill="none" stroke="#000000" stroke-width="0.5" stroke-miterlimit="10" d="M178.357,191.761c0,1.885-1.434,3.413-3.201,3.413
	h-32.014c-1.769,0-3.201-1.528-3.201-3.413v-34.133c0-1.885,1.433-3.413,3.201-3.413h32.014c1.768,0,3.201,1.528,3.201,3.413
	V191.761z"/>
<path fill="none" stroke="#000000" stroke-width="0.5" stroke-miterlimit="10" d="M241.796,200.956c0,2.484-2.016,4.5-4.5,4.5h-45
	c-2.486,0-4.5-2.016-4.5-4.5v-45c0-2.486,2.014-4.5,4.5-4.5h45c2.484,0,4.5,2.014,4.5,4.5V200.956z"/>
<path fill="none" stroke="#000000" stroke-width="0.5" stroke-miterlimit="10" d="M234.003,191.876c0,1.885-1.433,3.414-3.201,3.414
	h-32.014c-1.768,0-3.201-1.529-3.201-3.414v-34.133c0-1.885,1.434-3.412,3.201-3.412h32.014c1.769,0,3.201,1.527,3.201,3.412
	V191.876z"/>
<path fill="none" stroke="#000000" stroke-width="0.5" stroke-miterlimit="10" d="M297.755,200.878c0,2.486-2.016,4.5-4.5,4.5h-45
	c-2.486,0-4.5-2.014-4.5-4.5v-45c0-2.484,2.014-4.5,4.5-4.5h45c2.484,0,4.5,2.016,4.5,4.5V200.878z"/>
<path fill="none" stroke="#000000" stroke-width="0.5" stroke-miterlimit="10" d="M290.274,191.8c0,1.885-1.433,3.412-3.201,3.412
	H255.06c-1.768,0-3.201-1.527-3.201-3.412v-34.133c0-1.885,1.434-3.414,3.201-3.414h32.014c1.769,0,3.201,1.529,3.201,3.414V191.8z"
	/>
<path fill="none" stroke="#000000" stroke-width="0.5" stroke-miterlimit="10" d="M353.713,200.878c0,2.486-2.014,4.5-4.5,4.5
	h-44.999c-2.486,0-4.5-2.014-4.5-4.5v-45c0-2.484,2.014-4.5,4.5-4.5h44.999c2.486,0,4.5,2.016,4.5,4.5V200.878z"/>
<path fill="none" stroke="#000000" stroke-width="0.5" stroke-miterlimit="10" d="M346.234,191.8c0,1.885-1.434,3.412-3.201,3.412
	h-32.015c-1.768,0-3.201-1.527-3.201-3.412v-34.133c0-1.885,1.434-3.414,3.201-3.414h32.015c1.768,0,3.201,1.529,3.201,3.414V191.8z
	"/>
<path fill="none" stroke="#000000" stroke-width="0.5" stroke-miterlimit="10" d="M465.422,200.878c0,2.486-2.015,4.5-4.5,4.5h-45
	c-2.485,0-4.5-2.014-4.5-4.5v-45c0-2.484,2.015-4.5,4.5-4.5h45c2.485,0,4.5,2.016,4.5,4.5V200.878z"/>
<path fill="none" stroke="#000000" stroke-width="0.5" stroke-miterlimit="10" d="M457.63,191.8c0,1.885-1.433,3.412-3.201,3.412
	h-32.014c-1.768,0-3.201-1.527-3.201-3.412v-34.133c0-1.885,1.434-3.414,3.201-3.414h32.014c1.769,0,3.201,1.529,3.201,3.414V191.8z
	"/>
<path fill="none" stroke="#000000" stroke-width="0.5" stroke-miterlimit="10" d="M409.565,200.878c0,2.486-2.016,4.5-4.5,4.5h-45
	c-2.486,0-4.5-2.014-4.5-4.5v-45c0-2.484,2.014-4.5,4.5-4.5h45c2.484,0,4.5,2.016,4.5,4.5V200.878z"/>
<path fill="none" stroke="#000000" stroke-width="0.5" stroke-miterlimit="10" d="M402.085,191.8c0,1.885-1.433,3.412-3.201,3.412
	H366.87c-1.768,0-3.201-1.527-3.201-3.412v-34.133c0-1.885,1.434-3.414,3.201-3.414h32.014c1.769,0,3.201,1.529,3.201,3.414V191.8z"
	/>
<path fill="none" stroke="#000000" stroke-width="0.5" stroke-miterlimit="10" d="M576.79,200.878c0,2.486-2.015,4.5-4.5,4.5h-45
	c-2.485,0-4.5-2.014-4.5-4.5v-45c0-2.484,2.015-4.5,4.5-4.5h45c2.485,0,4.5,2.016,4.5,4.5V200.878z"/>
<path fill="none" stroke="#000000" stroke-width="0.5" stroke-miterlimit="10" d="M568.998,191.8c0,1.885-1.433,3.412-3.201,3.412
	h-32.014c-1.768,0-3.201-1.527-3.201-3.412v-34.133c0-1.885,1.434-3.414,3.201-3.414h32.014c1.769,0,3.201,1.529,3.201,3.414V191.8z
	"/>
<path fill="none" stroke="#000000" stroke-width="0.5" stroke-miterlimit="10" d="M632.423,200.745c0,2.486-2.015,4.5-4.5,4.5h-45
	c-2.485,0-4.5-2.014-4.5-4.5v-45c0-2.484,2.015-4.5,4.5-4.5h45c2.485,0,4.5,2.016,4.5,4.5V200.745z"/>
<path fill="none" stroke="#000000" stroke-width="0.5" stroke-miterlimit="10" d="M624.631,191.667c0,1.885-1.433,3.412-3.201,3.412
	h-32.014c-1.768,0-3.201-1.527-3.201-3.412v-34.133c0-1.885,1.434-3.414,3.201-3.414h32.014c1.769,0,3.201,1.529,3.201,3.414
	V191.667z"/>
<path fill="none" stroke="#000000" stroke-width="0.5" stroke-miterlimit="10" d="M1098.604,200.838c0,2.485-2.016,4.5-4.5,4.5h-45
	c-2.485,0-4.5-2.015-4.5-4.5v-45c0-2.485,2.015-4.5,4.5-4.5h45c2.484,0,4.5,2.015,4.5,4.5V200.838z"/>
<path fill="none" stroke="#000000" stroke-width="0.5" stroke-miterlimit="10" d="M1091.123,191.759
	c0,1.885-1.432,3.413-3.201,3.413h-32.013c-1.769,0-3.201-1.528-3.201-3.413v-34.133c0-1.885,1.433-3.413,3.201-3.413h32.013
	c1.77,0,3.201,1.528,3.201,3.413V191.759z"/>
<path fill="none" stroke="#000000" stroke-width="0.5" stroke-miterlimit="10" d="M1154.562,200.838c0,2.485-2.014,4.5-4.5,4.5
	h-44.999c-2.486,0-4.5-2.015-4.5-4.5v-45c0-2.485,2.014-4.5,4.5-4.5h44.999c2.486,0,4.5,2.015,4.5,4.5V200.838z"/>
<path fill="none" stroke="#000000" stroke-width="0.5" stroke-miterlimit="10" d="M1147.083,191.759
	c0,1.885-1.434,3.413-3.201,3.413h-32.015c-1.768,0-3.201-1.528-3.201-3.413v-34.133c0-1.885,1.434-3.413,3.201-3.413h32.015
	c1.768,0,3.201,1.528,3.201,3.413V191.759z"/>
<path fill="none" stroke="#000000" stroke-width="0.5" stroke-miterlimit="10" d="M1210.521,200.953c0,2.486-2.014,4.5-4.5,4.5h-45
	c-2.484,0-4.5-2.014-4.5-4.5v-45c0-2.484,2.016-4.5,4.5-4.5h45c2.486,0,4.5,2.016,4.5,4.5V200.953z"/>
<path fill="none" stroke="#000000" stroke-width="0.5" stroke-miterlimit="10" d="M1202.729,191.875
	c0,1.885-1.434,3.412-3.201,3.412h-32.014c-1.768,0-3.201-1.527-3.201-3.412v-34.133c0-1.885,1.434-3.414,3.201-3.414h32.014
	c1.768,0,3.201,1.529,3.201,3.414V191.875z"/>
<path fill="none" stroke="#000000" stroke-width="0.5" stroke-miterlimit="10" d="M1266.479,200.877c0,2.484-2.016,4.5-4.5,4.5h-45
	c-2.484,0-4.5-2.016-4.5-4.5v-45c0-2.486,2.016-4.5,4.5-4.5h45c2.484,0,4.5,2.014,4.5,4.5V200.877z"/>
<path fill="none" stroke="#000000" stroke-width="0.5" stroke-miterlimit="10" d="M1258.999,191.797
	c0,1.885-1.432,3.414-3.199,3.414h-32.014c-1.77,0-3.201-1.529-3.201-3.414v-34.133c0-1.885,1.432-3.412,3.201-3.412h32.014
	c1.768,0,3.199,1.527,3.199,3.412V191.797z"/>
<path fill="none" stroke="#000000" stroke-width="0.5" stroke-miterlimit="10" d="M1098.604,256.532c0,2.485-2.016,4.5-4.5,4.5h-45
	c-2.485,0-4.5-2.015-4.5-4.5v-45c0-2.485,2.015-4.5,4.5-4.5h45c2.484,0,4.5,2.015,4.5,4.5V256.532z"/>
<path fill="none" stroke="#000000" stroke-width="0.5" stroke-miterlimit="10" d="M1091.123,247.453
	c0,1.885-1.432,3.413-3.201,3.413h-32.013c-1.769,0-3.201-1.528-3.201-3.413V213.32c0-1.885,1.433-3.413,3.201-3.413h32.013
	c1.77,0,3.201,1.528,3.201,3.413V247.453z"/>
<path fill="none" stroke="#000000" stroke-width="0.5" stroke-miterlimit="10" d="M1154.562,256.532c0,2.485-2.014,4.5-4.5,4.5
	h-44.999c-2.486,0-4.5-2.015-4.5-4.5v-45c0-2.485,2.014-4.5,4.5-4.5h44.999c2.486,0,4.5,2.015,4.5,4.5V256.532z"/>
<path fill="none" stroke="#000000" stroke-width="0.5" stroke-miterlimit="10" d="M1147.083,247.453
	c0,1.885-1.434,3.413-3.201,3.413h-32.015c-1.768,0-3.201-1.528-3.201-3.413V213.32c0-1.885,1.434-3.413,3.201-3.413h32.015
	c1.768,0,3.201,1.528,3.201,3.413V247.453z"/>
<path fill="none" stroke="#000000" stroke-width="0.5" stroke-miterlimit="10" d="M1210.521,256.619c0,2.486-2.014,4.5-4.5,4.5h-45
	c-2.484,0-4.5-2.014-4.5-4.5v-45c0-2.484,2.016-4.5,4.5-4.5h45c2.486,0,4.5,2.016,4.5,4.5V256.619z"/>
<path fill="none" stroke="#000000" stroke-width="0.5" stroke-miterlimit="10" d="M1202.729,247.541
	c0,1.885-1.434,3.412-3.201,3.412h-32.014c-1.768,0-3.201-1.527-3.201-3.412v-34.133c0-1.885,1.434-3.414,3.201-3.414h32.014
	c1.768,0,3.201,1.529,3.201,3.414V247.541z"/>
<path fill="none" stroke="#000000" stroke-width="0.5" stroke-miterlimit="10" d="M1098.604,312.227c0,2.486-2.016,4.5-4.5,4.5h-45
	c-2.485,0-4.5-2.014-4.5-4.5v-45c0-2.484,2.015-4.5,4.5-4.5h45c2.484,0,4.5,2.016,4.5,4.5V312.227z"/>
<path fill="none" stroke="#000000" stroke-width="0.5" stroke-miterlimit="10" d="M1091.123,303.148
	c0,1.885-1.432,3.412-3.201,3.412h-32.013c-1.769,0-3.201-1.527-3.201-3.412v-34.133c0-1.885,1.433-3.414,3.201-3.414h32.013
	c1.77,0,3.201,1.529,3.201,3.414V303.148z"/>
<path fill="none" stroke="#000000" stroke-width="0.5" stroke-miterlimit="10" d="M1154.562,312.227c0,2.486-2.014,4.5-4.5,4.5
	h-44.999c-2.486,0-4.5-2.014-4.5-4.5v-45c0-2.484,2.014-4.5,4.5-4.5h44.999c2.486,0,4.5,2.016,4.5,4.5V312.227z"/>
<path fill="none" stroke="#000000" stroke-width="0.5" stroke-miterlimit="10" d="M1147.083,303.148
	c0,1.885-1.434,3.412-3.201,3.412h-32.015c-1.768,0-3.201-1.527-3.201-3.412v-34.133c0-1.885,1.434-3.414,3.201-3.414h32.015
	c1.768,0,3.201,1.529,3.201,3.414V303.148z"/>
<path fill="none" stroke="#000000" stroke-width="0.5" stroke-miterlimit="10" d="M1210.521,312.284c0,2.486-2.014,4.5-4.5,4.5h-45
	c-2.484,0-4.5-2.014-4.5-4.5v-45c0-2.484,2.016-4.5,4.5-4.5h45c2.486,0,4.5,2.016,4.5,4.5V312.284z"/>
<path fill="none" stroke="#000000" stroke-width="0.5" stroke-miterlimit="10" d="M1202.729,303.206
	c0,1.885-1.434,3.412-3.201,3.412h-32.014c-1.768,0-3.201-1.527-3.201-3.412v-34.133c0-1.885,1.434-3.414,3.201-3.414h32.014
	c1.768,0,3.201,1.529,3.201,3.414V303.206z"/>
<path fill="none" stroke="#000000" stroke-width="0.5" stroke-miterlimit="10" d="M1098.687,367.921c0,2.485-2.016,4.5-4.5,4.5h-45
	c-2.485,0-4.5-2.015-4.5-4.5v-45c0-2.485,2.015-4.5,4.5-4.5h45c2.484,0,4.5,2.015,4.5,4.5V367.921z"/>
<path fill="none" stroke="#000000" stroke-width="0.5" stroke-miterlimit="10" d="M1091.206,358.842
	c0,1.885-1.432,3.413-3.201,3.413h-32.013c-1.769,0-3.201-1.528-3.201-3.413v-34.133c0-1.885,1.433-3.413,3.201-3.413h32.013
	c1.77,0,3.201,1.528,3.201,3.413V358.842z"/>
<path fill="none" stroke="#000000" stroke-width="0.5" stroke-miterlimit="10" d="M1154.645,367.921c0,2.485-2.014,4.5-4.5,4.5
	h-44.999c-2.486,0-4.5-2.015-4.5-4.5v-45c0-2.485,2.014-4.5,4.5-4.5h44.999c2.486,0,4.5,2.015,4.5,4.5V367.921z"/>
<path fill="none" stroke="#000000" stroke-width="0.5" stroke-miterlimit="10" d="M1147.166,358.842
	c0,1.885-1.434,3.413-3.201,3.413h-32.015c-1.768,0-3.201-1.528-3.201-3.413v-34.133c0-1.885,1.434-3.413,3.201-3.413h32.015
	c1.768,0,3.201,1.528,3.201,3.413V358.842z"/>
<path fill="none" stroke="#000000" stroke-width="0.5" stroke-miterlimit="10" d="M1210.604,367.949c0,2.486-2.014,4.5-4.5,4.5h-45
	c-2.484,0-4.5-2.014-4.5-4.5v-45c0-2.484,2.016-4.5,4.5-4.5h45c2.486,0,4.5,2.016,4.5,4.5V367.949z"/>
<path fill="none" stroke="#000000" stroke-width="0.5" stroke-miterlimit="10" d="M1202.812,358.871
	c0,1.885-1.434,3.412-3.201,3.412h-32.014c-1.768,0-3.201-1.527-3.201-3.412v-34.133c0-1.885,1.434-3.414,3.201-3.414h32.014
	c1.768,0,3.201,1.529,3.201,3.414V358.871z"/>
<path fill="none" stroke="#000000" stroke-width="0.5" stroke-miterlimit="10" d="M1210.604,423.615c0,2.486-2.014,4.5-4.5,4.5h-45
	c-2.484,0-4.5-2.014-4.5-4.5v-45c0-2.484,2.016-4.5,4.5-4.5h45c2.486,0,4.5,2.016,4.5,4.5V423.615z"/>
<path fill="none" stroke="#000000" stroke-width="0.5" stroke-miterlimit="10" d="M1202.812,414.537
	c0,1.885-1.434,3.412-3.201,3.412h-32.014c-1.768,0-3.201-1.527-3.201-3.412v-34.133c0-1.885,1.434-3.414,3.201-3.414h32.014
	c1.768,0,3.201,1.529,3.201,3.414V414.537z"/>
<path fill="none" stroke="#000000" stroke-width="0.5" stroke-miterlimit="10" d="M1266.479,312.492c0,2.486-2.015,4.5-4.5,4.5h-45
	c-2.485,0-4.5-2.014-4.5-4.5V211.619c0-2.485,2.015-4.5,4.5-4.5h45c2.485,0,4.5,2.015,4.5,4.5V312.492z"/>
<path fill="none" stroke="#000000" stroke-width="0.5" stroke-miterlimit="10" d="M1258.999,302.326c0,2.486-2.015,4.5-4.5,4.5
	h-29.414c-2.485,0-4.5-2.014-4.5-4.5v-87.832c0-2.485,2.015-4.5,4.5-4.5h29.414c2.485,0,4.5,2.015,4.5,4.5V302.326z"/>
<path fill="none" stroke="#000000" stroke-width="0.5" stroke-miterlimit="10" d="M1049.187,428.115c-2.484,0-4.5-2.016-4.5-4.5v-45
	c0-2.486,2.016-4.5,4.5-4.5h100.875c2.484,0,4.5,2.014,4.5,4.5v45c0,2.484-2.016,4.5-4.5,4.5H1049.187z"/>
<path fill="none" stroke="#000000" stroke-width="0.5" stroke-miterlimit="10" d="M1147.43,413.449c0,2.485-2.015,4.5-4.5,4.5
	h-85.639c-2.485,0-4.5-2.015-4.5-4.5V381.49c0-2.485,2.015-4.5,4.5-4.5h85.639c2.485,0,4.5,2.015,4.5,4.5V413.449z"/>
<path fill="none" stroke="#000000" stroke-width="0.5" stroke-miterlimit="10" d="M1266.792,423.624c0,2.48-2.015,4.491-4.5,4.491
	h-45c-2.485,0-4.5-2.011-4.5-4.491V322.94c0-2.48,2.015-4.491,4.5-4.491h45c2.485,0,4.5,2.011,4.5,4.491V423.624z"/>
<path fill="none" stroke="#000000" stroke-width="0.5" stroke-miterlimit="10" d="M1259.312,413.477c0,2.48-2.015,4.492-4.5,4.492
	h-29.414c-2.485,0-4.5-2.012-4.5-4.492v-87.666c0-2.48,2.015-4.491,4.5-4.491h29.414c2.485,0,4.5,2.011,4.5,4.491V413.477z"/>
</svg>
