<?xml version="1.0" standalone="yes"?>
<svg width="1953" height="923">
<path style="fill:#e3e4e6; stroke:none;" d="M0 0L0 923L1953 923L1953 0L0 0z"/>
<path style="fill:#252526; stroke:none;" d="M1595.67 20.3333L1596.33 20.6667L1595.67 20.3333M1723 25L1728 26L1733 20C1729.23 20.8936 1725.35 21.8009 1723 25M1774 23L1776 21L1782 22C1779.4 19.0286 1776.13 20.0457 1774 23M1869 21L1870 25C1871.65 23.5507 1871.45 23.2079 1871 21L1874 24L1882 21C1882 23.347 1883.61 23.29 1886 24C1883 18.273 1874.39 19.4081 1869 21M1910 20C1910.21 22.7386 1910.3 23.422 1913 24L1911 28C1912.94 28.6924 1913.47 29.1572 1915 28L1916 32C1918.47 30.2067 1920.43 29.0027 1921 26L1926 32L1931 28L1928 25L1936 27L1939 24C1936.01 16.5707 1917 20 1910 20M1828 22C1830.3 22.9157 1831.38 22.8793 1833 21L1828 22z"/>
<path style="fill:#e3e4e6; stroke:none;" d="M1913 24L1916 24L1915 22L1913 24z"/>
<path style="fill:#252526; stroke:none;" d="M1692 155.424C1684.36 156.427 1674.18 153.9 1668.39 160.214C1659 170.466 1663.4 199.91 1664.04 213C1664.28 217.972 1666.09 223.042 1670.19 226.146C1677.12 231.394 1689.8 229 1698 229C1721.87 229 1749.53 232.908 1773 228.671C1791.53 225.324 1785 191.631 1785 178C1785 171.598 1785.83 164.238 1780.66 159.419C1774.37 153.55 1763.85 155 1756 155C1735.13 155 1712.68 152.708 1692 155.424M1812 155.638C1794.1 160.813 1800 191.781 1800 206C1800 212.789 1799.58 220.514 1805.21 225.442C1811.86 231.25 1823.84 229 1832 229L1886 229C1893.59 229 1903.76 230.757 1911 228.297C1927.3 222.755 1921 190.43 1921 177C1921 170.383 1921.8 163.17 1915.9 158.653C1908.83 153.25 1897.31 155 1889 155L1837 155C1829.21 155 1819.52 153.464 1812 155.638M763 156.579C751.505 157.258 728.514 152.477 719.105 159.653C714.033 163.521 714.002 169.199 714 175C713.995 187.712 708.248 219.23 720.043 227.272C727.493 232.352 740.443 230 749 230C772.337 230 796.776 232.103 820 229.896C840.599 227.938 834 195.346 834 181C834 174.51 835.208 166.553 830.442 161.34C825.494 155.928 817.614 157 811 157L763 156.579M861 156.613C855.652 158.057 851.914 161.812 850.109 167L849 182C849 194.259 844.622 217.905 855.044 226.721C861.521 232.201 873.084 230 881 230L934 230C942.121 230 952.244 231.601 959.999 228.891C976.302 223.194 970.001 190.661 970 177C970 170.706 970.26 163.999 964.812 159.652C957.841 154.09 946.285 156 938 156L887 156C878.843 156 868.911 154.479 861 156.613M996 156.653C978.782 162.053 984.999 194.228 985 208C985 214.391 984.768 221.845 990.214 226.351C997.099 232.049 1008.72 230 1017 230L1070 230C1078.21 230 1088.14 231.49 1096 228.751C1100.95 227.023 1104.26 223.081 1105.47 218C1108.74 204.281 1106.4 186.097 1105.98 172C1105.83 166.946 1104.05 162.195 1099.81 159.133C1092.68 153.97 1081.31 156 1073 156L1021 156C1013.32 156 1003.37 154.34 996 156.653M1131 156.819C1125.93 158.658 1122.72 162.837 1121.53 168C1118.5 181.12 1120.93 197.543 1121 211C1121.03 216.594 1121.77 222.476 1126.33 226.351C1133.08 232.094 1144.81 230 1153 230L1206 230C1214.11 230 1224.36 231.656 1232 228.517C1248.02 221.933 1242.07 189.923 1242 176C1241.97 169.874 1241.33 162.827 1235.9 158.97C1228.76 153.903 1217.29 156 1209 156L1156 156C1148.43 156 1138.18 154.215 1131 156.819M1268 156.533C1263.11 157.723 1259.32 161.179 1257.8 166C1253.74 178.949 1256.98 197.457 1257 211C1257.01 216.682 1257.5 222.166 1262.21 226.057C1268.69 231.408 1281.11 229 1289 229L1343 229C1350.64 229 1360.65 230.703 1368 228.486C1374.23 226.607 1376.47 220.833 1377.41 215C1379.48 202.138 1378.06 188.015 1378 175C1377.97 169 1377.01 162.853 1371.81 159.029C1364.71 153.802 1352.29 156 1344 156L1293 156L1268 156.533M1402 156.858C1386.79 163.048 1393 195.782 1393 209C1393 215.229 1392.68 221.938 1398.19 226.146C1404.73 231.144 1416.26 229 1424 229L1480 229C1487.39 229 1498.13 230.951 1504.99 227.911C1519.16 221.628 1513 187.773 1513 175C1513 168.902 1513.2 162.933 1507.81 158.854C1501.24 153.87 1489.77 156 1482 156L1427 156C1419.62 156 1408.91 154.047 1402 156.858M1538 156.703C1533.42 158.272 1530.25 162.313 1529.34 167C1526.77 180.29 1528.14 197.448 1528.46 211C1528.58 216.19 1529.28 221.648 1533.33 225.291C1539.95 231.252 1551.77 229 1560 229L1615 229C1623 229 1633.54 230.754 1641 227.347C1655.09 220.91 1649 187.855 1649 175C1649 168.982 1649.31 162.685 1643.9 158.703C1637.13 153.73 1624.92 156 1617 156L1563 156C1555.42 156 1545.22 154.231 1538 156.703M47 157.468C41.144 158.604 37.4393 162.294 35.7894 168C31.9258 181.362 34.342 201.116 35.0401 215C35.2846 219.862 37.1702 224.367 41.0941 227.427C47.5369 232.453 60.2581 230 68 230L119 230L145 229.467C162.343 225.25 156.064 190.332 155.999 177C155.97 170.874 155.33 163.827 149.895 159.97C142.569 154.77 130.51 157 122 157C98.2293 157 70.3187 152.946 47 157.468M182 157.533C177.178 158.706 173.156 162.215 171.653 167L171 182C171 194.182 166.193 219.161 177.044 227.566C183.242 232.367 195.565 230 203 230L256 230C263.969 230 274.39 231.751 281.996 229.146C286.997 227.433 290.122 223.163 290.812 218L291 177C291 170.125 291.127 164.113 284.96 159.653C278.126 154.711 266.009 157 258 157L207 157L182 157.533M316.001 157.703C310.277 159.649 307.742 164.397 306.758 170C304.466 183.042 305.69 197.775 306.015 211C306.16 216.901 307.271 223.334 312.185 227.196C318.602 232.239 330.313 230 338 230L392 230C399.938 230 410.506 231.801 417.999 228.852C423.191 226.809 425.9 222.349 426.699 217L427 176C426.998 169.575 426.628 163.785 420.957 159.653C414.155 154.698 401.985 157 394 157L341 157C333.411 157 323.237 155.243 316.001 157.703M452.001 157.653C447.295 159.135 443.794 163.292 442.558 168C439.131 181.057 441.098 200.535 442.09 214C442.454 218.937 444.011 224.225 448.105 227.347C454.698 232.375 467.165 230 475 230L528 230C535.589 230 545.763 231.757 552.999 229.297C558.661 227.372 561.33 222.559 562.381 217C564.883 203.764 563.161 188.456 562.996 175C562.927 169.331 561.678 163.299 556.895 159.653C550.3 154.625 537.836 157 530 157L477 157C469.327 157 459.365 155.332 452.001 157.653M587.015 157.703C582.25 159.358 578.973 164.137 578.214 169C576.175 182.051 577.979 196.787 578 210C578.01 215.941 578.185 222.426 583.109 226.581C589.641 232.093 601.072 230 609 230L664 230C672.015 230 682.517 231.741 689.999 228.347C695.55 225.829 697.537 220.639 698.536 215C700.815 202.138 699.327 187.054 698.985 174C698.846 168.677 697.332 163.035 692.895 159.653C686.3 154.625 673.836 157 666 157L612 157C604.451 157 594.198 155.208 587.015 157.703z"/>
<path style="fill:#e3e4e6; stroke:none;" d="M1138 159.425C1118.77 162.052 1125 187.082 1125 202C1125 207.975 1123.24 217.135 1128.23 221.566C1133.81 226.527 1147.01 224 1154 224L1205 224L1229 223.566C1234.28 222.101 1236.28 216.993 1236.83 212L1236.99 175C1236.87 170.255 1236.34 164.018 1231.81 161.318C1225.97 157.841 1211.82 159.034 1205 159.001C1183.22 158.896 1159.57 156.479 1138 159.425M1268.01 159.653C1254.52 164 1260 195.977 1260 207C1260 212.19 1259.65 217.878 1264.13 221.486C1270.04 226.244 1281.88 224 1289 224L1342 224C1349.07 224 1359.34 225.876 1365.98 223.258C1371.91 220.919 1371.71 215.339 1372.17 210C1373.09 199.118 1378.23 168.922 1367.89 161.742C1362.59 158.063 1349.41 159.172 1343 159.015L1293 159C1285.37 159 1275.33 157.297 1268.01 159.653M1405 159.533C1391.35 162.899 1397 195.099 1397 206C1397 211.094 1395.89 217.773 1400.23 221.486C1405.87 226.317 1418.07 224 1425 224L1476 224C1483.76 224 1493.54 225.567 1501 223.196C1514.68 218.846 1509 187.363 1509 176C1509 170.274 1509.45 164.348 1503.96 160.858C1497.46 156.733 1485.41 159 1478 159L1429 159L1405 159.533M1540 159.573C1534.6 161.144 1532.96 165.91 1532.29 171L1532 208C1532 213.482 1532.05 218.693 1537.09 222.107C1543.37 226.353 1555.71 224 1563 224L1613 224C1620.37 224 1629.93 225.595 1637 223.347C1650.53 219.045 1645 188.097 1645 177C1645 171.79 1645.39 165.3 1640.78 161.728C1634.46 156.84 1622.46 159 1615 159L1564 159C1556.56 159 1547.18 157.484 1540 159.573M1675.02 159.653C1668.87 161.64 1668.03 167.36 1668 173L1668 207C1668 212.099 1667.35 217.945 1672.11 221.258C1677.95 225.324 1690.16 223 1697 223L1750 223C1757.07 223 1767.34 224.876 1773.98 222.258C1779.77 219.976 1779.99 214.331 1780 209C1780.02 197.787 1786.75 168.122 1775.89 160.858C1769.61 156.66 1757.25 159 1750 159L1699 159C1691.66 159 1682.05 157.379 1675.02 159.653M1810.02 159.742C1804.23 162.024 1804.01 167.669 1804 173L1804 207C1804 212.099 1803.35 217.945 1808.11 221.258C1813.95 225.324 1826.16 223 1833 223L1874 223.17C1884.33 224.153 1900.27 226.865 1909.98 222.347C1915.67 219.701 1915.99 214.549 1916 209L1916.99 175C1916.87 170.103 1916.34 163.84 1911.89 160.858C1905.8 156.779 1894.02 159 1887 159L1834 159C1826.93 159 1816.66 157.124 1810.02 159.742M321 160.468C317.049 161.235 313.301 163.063 311.742 167.015L311 181C311 191.458 304.899 216.155 315.109 223.258C321.125 227.443 333.949 225 341 225L386 225.039C395 225.433 405.064 227.65 413.999 225.467C428.706 221.873 423.004 189.495 423 178C422.998 172.406 423.27 166.285 417.945 162.858C411.504 158.713 399.367 161 392 161L347 160.961C338.445 160.586 329.558 158.809 321 160.468M456 160.468C440.045 163.567 446 193.839 446 206C446 211.687 444.873 219.217 450.214 222.991C456.39 227.355 468.779 225 476 225L527 225C534.382 225 543.855 226.576 550.985 224.566C555.795 223.21 557.691 218.598 557.957 214L558 177C558 171.828 558.617 166.146 553.891 162.728C547.09 157.808 534.906 160 527 160C504.487 160 478.087 156.179 456 160.468M591 160.533C576.152 164.149 582 195.287 582 207C582 212.466 581.104 219.38 586.214 222.991C592.39 227.355 604.779 225 612 225L662 225L685.999 224.566C699.524 220.841 694.004 187.759 694 177C693.998 171.99 694.335 166.079 689.786 162.742C684.146 158.604 670.781 160 664 160L616 160L591 160.533M725.004 160.653C711.772 164.86 716.874 197.086 717.004 208C717.061 212.769 717.271 219.032 721.228 222.347C727.079 227.249 738.88 225 746 225L799 225C806.187 225 816.215 226.776 822.985 224.107C828.785 221.819 828.991 216.381 829 211L829 176C829 170.973 829.598 165.248 824.811 162.089C818.301 157.794 806.45 160 799 160L749 160C741.63 160 732.075 158.404 725.004 160.653M860.015 160.742C855.786 162.408 853.537 166.675 853.105 171L853 208C853.002 213.175 852.631 218.79 857.133 222.347C863.239 227.17 874.697 225 882 225L935 225C942.046 225 952.359 226.879 958.907 223.991C964.267 221.626 964.972 216.186 964.999 211L965 177C965 171.776 965.588 166.202 960.891 162.703C954.544 157.974 943.442 160 936 160L884 160C876.927 160 866.66 158.126 860.015 160.742M996.015 160.653C991.261 162.189 989.315 166.295 989.043 171L989 208C989 213.283 988.451 218.747 993.109 222.347C999.307 227.138 1010.63 225 1018 225L1070 224C1077.27 224 1088.15 226.016 1094.96 223.258C1100 221.213 1100.93 215.817 1101 211L1101 176C1100.94 170.916 1100.57 164.873 1095.94 161.742C1089.97 157.709 1077.93 160 1071 160L1020 160C1012.66 160 1003.05 158.379 996.015 160.653M49 161.479C32.9863 164.791 38.9992 195.751 39 208C39.0004 213.897 38.4777 220.531 44.0548 224.258C50.2455 228.394 62.8204 226 70 226L120 226L143.996 225.682C149.587 224.261 150.925 219.066 150.996 214L152 179C151.998 173.44 152.125 167.316 146.895 163.858C140.39 159.557 127.501 162 120 162C97.4322 162 71.1722 156.894 49 161.479M183.001 161.573C178.978 162.732 175.984 165.864 175.228 170C172.997 182.221 174.999 196.573 175 209C175 214.356 174.516 219.81 179.109 223.566C184.912 228.313 196.938 226 204 226L256 226C263.217 226 273.186 227.753 279.995 225.107C292.458 220.263 287.004 188.917 287 178C286.998 172.885 287.407 167.161 282.867 163.703C276.435 158.805 264.593 161 257 161L207 161C199.552 161 190.197 159.497 183.001 161.573z"/>
<path style="fill:#252526; stroke:none;" d="M1733 178C1736.39 189.845 1736.34 193.442 1732 205C1740.01 198.669 1740.17 185.103 1733 178M367 180L367 184L367 180M230 181L230 183L232 183L232 181L230 181M486 181L486 191L503 191L503 181L486 181M624 190L633 190C632.961 179.04 624.039 179.04 624 190M636 190L645 190L645 181C637.677 181.026 636.026 182.677 636 190M649.603 182.028C644.634 185.959 651.766 192.636 656.397 188.972C661.366 185.041 654.234 178.364 649.603 182.028M1729 181C1731.57 190.022 1731.49 193.254 1728 202C1735.35 197.486 1734.94 186.486 1729 181M359 183L362 187L359 183M375 183L373 187C374.63 185.485 375.163 185.145 375 183z"/>
<path style="fill:#e3e4e6; stroke:none;" d="M488 183L488 189L501 189L501 183L488 183z"/>
<path style="fill:#252526; stroke:none;" d="M511 183L511.603 197.682C513.093 200.71 519.971 200.893 522.397 198.972C525.096 196.834 525.096 186.166 522.397 184.028C519.777 181.953 514.145 183 511 183z"/>
<path style="fill:#e3e4e6; stroke:none;" d="M626 183L626 188L631 188L631 183L626 183M638 183L638 188L643 188L643 183L638 183M650 183L650 188L656 188L656 183L650 183z"/>
<path style="fill:#252526; stroke:none;" d="M1853 192L1871 192C1863.92 183.845 1859.83 182.305 1853 192M224.333 184.667L224.667 185.333L224.333 184.667M237.333 184.667L237.667 185.333L237.333 184.667M1184 184C1183.96 188.97 1181.26 195.923 1186 199L1186 184L1184 184M1456 184C1452.14 187.322 1448.42 188.555 1448 194L1457 199L1456 184M1588 184C1585.33 186.269 1583.47 187.478 1580 188L1580 194L1589 199L1588 184M1593 184C1594.43 189.412 1594.68 192.608 1593 198C1598.41 194.413 1597.45 187.927 1593 184M1720 184C1717.33 186.269 1715.47 187.478 1712 188L1712 194L1721 199L1720 184M1725 184C1726.67 189.354 1726.94 192.669 1725 198C1730.36 194.444 1729.3 187.972 1725 184z"/>
<path style="fill:#e3e4e6; stroke:none;" d="M513 185L513 197L522 197L522 185L513 185z"/>
<path style="fill:#252526; stroke:none;" d="M1033 191L1044 198L1044 185L1033 191M1169 185L1169 198L1180 192L1169 185M1191 185L1190 199L1193 199L1193 185L1191 185M1306 185L1306 198L1317 192L1317 198L1328 193L1328 191L1318 185L1317 191L1306 185M89 195C85.3249 195.937 83.6238 195.786 81 193L89 193C88.4543 188.158 82.2299 182.569 80.3225 190.059C78.7712 196.15 85.1812 200.399 89 195M98 194L98 196L92 196C93.6515 197.881 98.3104 198.799 98.3657 194.891L95 187L99 188C92.8683 183.543 91.1243 190.875 98 194M109 198C103.884 194.575 102.661 189.17 110 188C102.966 182.989 98.2063 197.166 109 198M366.055 186.89C360.122 188.385 361.543 198.606 367.971 197.458C374.916 196.217 372.471 185.274 366.055 186.89M1045 191C1048.07 194.322 1051.77 196.45 1056 198L1055 186L1045 191z"/>
<path style="fill:#e3e4e6; stroke:none;" d="M81 191L88 191C85.8467 187.42 83.1533 187.42 81 191z"/>
<path style="fill:#252526; stroke:none;" d="M229.228 187.801C223.957 189.731 227.632 197.424 232.775 195.238C237.854 193.08 233.955 186.071 229.228 187.801z"/>
<path style="fill:#e3e4e6; stroke:none;" d="M229.589 189.175C226.776 190.845 229.54 196.044 232.397 193.914C234.754 192.157 232.234 187.605 229.589 189.175M365.318 189.086C361.56 191.256 364.924 197.083 368.682 194.914C372.44 192.744 369.076 186.917 365.318 189.086z"/>
<path style="fill:#252526; stroke:none;" d="M221.667 191.333L222.333 191.667L221.667 191.333M239.667 191.333L240.333 191.667L239.667 191.333M355 191L355 193L359 193L359 191L355 191M375 192L379 193L375 192M625.603 194.029C621.123 197.541 626.343 205.934 631.397 201.971C635.877 198.458 630.657 190.066 625.603 194.029M645 193C627.041 193.064 644.985 212.737 645 193M649.603 194.028C644.558 198.012 651.198 206.078 656.397 201.972C661.442 197.988 654.802 189.922 649.603 194.028M493.603 195.028C486.078 201.002 501.883 205.556 506.397 201.972C513.922 195.998 498.117 191.444 493.603 195.028z"/>
<path style="fill:#e3e4e6; stroke:none;" d="M626 195L626 201L631 201L631 195L626 195M638 195L638 201L643 201L643 195L638 195M650 195C650.789 205.122 660.122 195.789 650 195M494 196L494 201L506 201L506 196L494 196z"/>
<path style="fill:#252526; stroke:none;" d="M1852 196L1852 199L1871 199L1871 196L1852 196M224 197L223 199L225 199L224 197M237 198L238 199L237 198M359 201L362 198L359 201M373 198L376 201L373 198M230.333 200.667L230.667 201.333L230.333 200.667M366 201L366 205L368 201L366 201M266 213L270 208L267 204L271 204L271 202C265.043 202.994 266.001 207.977 266 213M274 202L275 213C276.422 209.612 276.923 204.554 274 202M543 205L546 204L545 209L547 209L547 211L542 211C550.308 218.724 548.115 197.746 543 205M1360 210L1358 214C1360.28 212.602 1366.3 203.211 1360 203.207C1355.47 203.204 1358.04 208.726 1360 210M1619 202L1618 213L1620 213L1623 208L1620 204L1624 204L1624 202L1619 202M1626 202L1628 213L1629 202L1626 202M1632 202L1633 213L1635 213C1635 208.808 1635.82 204.48 1632 202M1752 202L1751 213L1753 213L1753 208L1757 208L1753 207L1753 203L1757 203L1752 202M1759 202L1761 213L1762 202L1759 202M1765 206L1769 204L1765 213L1771 214L1771 212L1767 212L1770.31 205.088C1769.56 200.723 1765.7 203.495 1765 206M399 203L399 214L404 209L400 208L404 204L399 203M406 207L408 204L410 204L411 205L406 214L412 214L408 213C411.773 207.889 410.151 199.52 406 207M535 203L535 214L536 209L540 209L540 207L536 207L536 204L540 204L535 203M670 203L670 214L675 209L671 207L671 205L675 204L670 203M681 203L677 211L683 214C683 210.01 683.474 206.266 681 203M805 203L805 214L806 209L810 209L810 207L806 207L806 204L810 204L805 203M813 203L813 208L817 209L817 211L812 212C817.169 215.42 818.691 208.889 814 206L817 204L813 203M942 203L942 213L943 209L947 209L947 207L943 207L943 204L947 204L942 203M952 203L950.298 206.16C946.765 216.004 958.736 211.433 952 207L954 203L952 203M1078 203L1077 213L1079 213L1082 209L1079 208L1079 204L1083 204L1078 203M1085 203L1089 204L1085 214C1088.44 211.47 1089.39 207.095 1090 203L1085 203M1213 203L1213 214L1214 209L1218 209L1214 207L1214 205L1218 204L1213 203M1221 203L1220.63 208.02C1220.1 219.513 1232.54 204.93 1221 203M1350 203L1349 213L1351 213L1354 209L1351 208L1354 204L1350 203M1480 203L1480 214L1481 209L1485 209L1481 208L1481 204L1485 204L1480 203M1487 203C1489 206.603 1489 209.948 1489 214L1490 203L1487 203M1495.27 204.176C1491.57 206.032 1493 215.727 1497.37 212.914C1500.59 210.84 1499.92 201.847 1495.27 204.176z"/>
<path style="fill:#e3e4e6; stroke:none;" d="M1223 204L1222 207L1225 205L1223 204M1359 204L1358 205L1358 207L1359 208L1361 208L1362 207L1362 205L1361 204L1359 204M1495 204L1495 212L1497 212L1497 204L1495 204M680 206L679 210L682 206L680 206M951 208L950 209L950 211L954 212L953 208L951 208M1222 209L1222 213L1225 209L1222 209z"/>
<path style="fill:#252526; stroke:none;" d="M1127 244.424C1116.27 245.833 1096.73 240.664 1088.34 248.533C1082.2 254.291 1084 264.417 1084 272L1084 330C1084 337.526 1082.03 347.955 1088.21 353.606C1094.57 359.415 1107.05 357 1115 357C1138.31 357 1165.05 360.686 1188 356.775C1198.25 355.028 1199.58 344.603 1199.96 336L1200 277C1200 268.898 1201.57 258.24 1196.99 251.043C1192.79 244.448 1185.02 244.003 1178 244C1161.33 243.994 1143.53 242.253 1127 244.424M1235 244.424C1228.3 245.304 1221.37 244.416 1217.37 251.043C1213.32 257.749 1215 267.488 1215 275L1215 328C1215 335.263 1213.03 345.736 1217.8 351.815C1223.73 359.357 1235.54 357 1244 357C1268.09 357 1295.23 360.541 1319 356.786C1328.08 355.352 1330.61 345.94 1330.96 338L1331 277C1331 269.097 1333.03 257.877 1328.3 251.019C1322.43 242.519 1311.97 244 1303 244C1280.82 244 1256.99 241.537 1235 244.424M1358 244.532C1347.06 247.14 1346 256.48 1346 266L1346 326C1346 333.368 1343.87 344.705 1348.51 350.957C1354.46 358.962 1365.27 357 1374 357L1426 357C1434.22 357 1444.06 358.453 1452 356.057C1461.45 353.205 1461.96 342.343 1462 334L1462 274C1462 266.066 1463.72 255.786 1458.2 249.225C1452.53 242.484 1440.81 244 1433 244L1383 244L1358 244.532M1490 244.468C1482.8 245.829 1478.11 250.645 1477.19 258C1474.46 279.632 1477 303.186 1477 325C1477 332.848 1474.94 344.175 1479.7 350.957C1485.38 359.045 1496.42 357 1505 357L1557 357L1582 356.581C1591.46 354.221 1592.96 344.279 1593 336L1593 275C1593 266.916 1594.98 255.86 1589.5 249.108C1583.67 241.921 1572.17 244 1564 244C1540.48 244 1513.09 240.1 1490 244.468M1619 244.638C1609.84 247.291 1608.01 255.582 1608 264L1608 325C1608 332.854 1606.04 344.105 1610.73 350.956C1616.21 358.964 1627.63 357 1636 357L1688 357C1696.14 357 1706.18 358.56 1714 356.007C1723 353.066 1724 344.16 1724 336L1724 275C1724 267.577 1726.16 256.291 1721.43 250.043C1715.39 242.067 1704.8 244 1696 244L1644 244C1636.21 244 1626.52 242.461 1619 244.638M1749 244.703C1739.62 247.892 1739 257.647 1739 266L1739 329C1739 337.07 1737.36 347.642 1744.19 353.581C1752.67 360.956 1773.42 357 1784 357L1872 357C1883.25 357 1900.52 360.242 1911 355.991C1921.01 351.934 1921 342.115 1921 333L1921 272C1921 263.422 1922.96 252.37 1914.98 246.653C1905.75 240.037 1884.98 244 1874 244L1788 244C1776.46 244 1759.95 240.98 1749 244.703M47 245.613C38.2638 247.971 35.5623 255.768 35.0934 264L36 327C36 334.368 33.8708 345.705 38.5139 351.957C44.4591 359.962 55.2737 358 64 358L116 358C123.68 358 133.626 359.66 141 357.347C151.133 354.169 151 344.742 151 336L151 276C151 268.541 153.016 257.477 148.297 251.108C142.837 243.74 131.023 245 123 245L72 245C64.1422 245 54.6231 243.556 47 245.613M180 245.44C170.823 246.933 167.051 253.204 166.171 262C164.078 282.916 166 304.974 166 326C166 334.016 164.406 345.094 169.514 351.957C175.47 359.958 186.266 358 195 358C218.869 358 246.534 361.908 270 357.671C278.57 356.123 281.787 348.971 281.985 341L282 277C282 269.047 284.095 257.869 279.08 251.108C273.163 243.131 261.652 245 253 245C229.503 245 203.182 241.669 180 245.44M309 245.533C300.601 247.575 297.213 255.03 297.015 263L297 325C297 333.401 295.023 344.624 300.133 351.895C305.62 359.701 316.719 358 325 358L378 358C385.678 358 395.629 359.662 403 357.347C412.252 354.441 412.997 345.202 413 337L413 275C413 267.456 415.032 256.33 409.581 250.214C403.489 243.378 392.172 245 384 245L334 245L309 245.533M441 245.468C433.039 247.012 428.668 253.169 428.09 261L428 325C428 333.277 426.064 344.649 431.144 351.815C436.794 359.784 447.522 358 456 358L507 358C515.155 358 525.08 359.521 533 357.442C542.469 354.957 543.986 346.474 544 338L544 276C544 267.954 546.057 256.75 540.442 250.133C534.619 243.271 522.996 245 515 245C491.542 245 464.013 241.007 441 245.468M570.001 245.638C560.943 248.269 559.013 256.689 559 265L559 327C559 334.83 557.404 346.191 562.804 352.671C568.843 359.919 579.644 358 588 358L639 358C646.787 358 656.479 359.536 664 357.362C674.391 354.357 674.999 345.19 675 336L675 276C675 268.501 677.072 257.431 672.347 251.055C666.542 243.221 655.512 245 647 245L595 245C587.22 245 577.513 243.456 570.001 245.638M701 245.558C691.573 248.035 690.104 257.59 690.004 266L690 326C690 333.961 688.19 345.232 693.433 351.956C699.434 359.651 710.387 358 719 358L770 358C777.883 358 787.375 359.418 795 357.211C805.886 354.059 806 344.494 806 335L806 275C806 267.281 808.051 256.4 802.606 250.109C796.561 243.125 785.24 245 777 245L726 245C718.147 245 708.628 243.553 701 245.558M832 245.558C822.558 248.039 821.22 257.597 821.015 266L821 325C821 333.07 819.263 343.858 823.89 350.985C829.727 359.976 840.754 358 850 358L900 358C909 358 919.332 359.307 927.999 356.362C937.941 352.983 937 342.545 937 334L937 274C937 266.235 938.983 255.566 933.291 249.34C927.341 242.832 915.925 245 908 245L857 245C849.147 245 839.628 243.553 832 245.558M963.001 245.558C951.882 248.489 953.593 259.102 952.424 268C949.874 287.423 952 308.408 952 328C952 335.663 950.593 345.456 955.572 351.956C961.19 359.292 972.751 358 981 358L1031 358C1039.73 358 1049.54 359.23 1058 356.695C1067.67 353.796 1068 344.515 1068 336L1068 275C1068 267.635 1070.06 256.425 1065.3 250.188C1059.71 242.873 1048.03 245 1040 245L988 245C980.151 245 970.624 243.548 963.001 245.558z"/>
<path style="fill:#e3e4e6; stroke:none;" d="M1356 247.653C1346.89 250.551 1348 260.353 1348 268L1348 325C1348 331.138 1346.01 341.623 1349.74 346.867C1354.31 353.284 1366.2 351 1373 351L1425 351C1432.1 351 1442.32 352.857 1449 350.258C1456.3 347.414 1456.17 335.666 1455.68 329L1456 273C1456 266.668 1457.92 256.415 1453.49 251.228C1448.4 245.27 1436.95 247 1430 247L1380 247C1372.63 247 1363.08 245.405 1356 247.653M1490 247.444C1481.61 248.909 1479.34 255.238 1479.04 263L1480 323C1480 329.745 1477.84 341.111 1481.74 346.945C1486.67 354.317 1499.45 352.416 1507 351.424C1523.86 349.211 1542 351 1559 351L1580 350.566C1588.93 348.107 1588 338.28 1588 331L1587 272C1587 266.003 1589.09 255.1 1584.57 250.419C1579.1 244.773 1567.08 247 1560 247C1537.59 247 1512.07 243.591 1490 247.444M1647 247.428C1638.34 248.463 1619.66 244.223 1613.43 251.228C1608.98 256.242 1611 266.771 1611 273L1610 328C1610 334.363 1608.3 343.686 1613.39 348.57C1619.27 354.204 1631.59 352 1639 352C1661.35 352 1685.87 354.874 1708 351.811C1718.89 350.304 1718 340.465 1718 332L1719 275C1719 268.295 1720.86 258.065 1716.91 252.214C1713.13 246.615 1704.81 248 1699 248L1647 247.428M657 248.595L592 249C585.02 249 572.054 246.532 566.133 250.742C559.875 255.194 562 266.371 562 273L562 330C562 336.347 560.301 345.919 566.214 350.258C571.992 354.497 585.125 352 592 352L659 352.725C671.887 351.977 669.109 339.8 669.004 331L669 268C669 258.437 669.602 248.206 657 248.595M833.001 248.533C824.32 250.654 823.712 259.46 824.039 267L825 325C825 331.617 822.825 343.067 827.009 348.656C831.424 354.553 844.512 352 851 352L901 352C908.382 352 917.855 353.576 924.985 351.566C933.941 349.041 932 337.067 932 330L932 274C932 267.464 933.825 257.636 929.347 252.225C924.059 245.833 912.319 248 905 248L857 248L833.001 248.533M963.004 248.653C954.415 251.384 954.716 261.609 955.039 269L955 326C955 332.695 953.355 343.081 957.738 348.772C962.102 354.437 974.682 352 981 352L1034 352C1040.73 352 1050.65 353.822 1056.96 351.258C1064.98 347.994 1063 335.839 1063 329L1063 274C1063 267.423 1064.8 257.682 1060.35 252.214C1055.06 245.729 1043.39 248 1036 248L987 248C979.63 248 970.075 246.404 963.004 248.653M1095 248.533C1084.99 250.981 1087 262.006 1087 270L1087 326C1087 332.76 1085.13 343.12 1089.7 348.772C1094.26 354.404 1106.55 352 1113 352L1163 352C1170.44 352 1179.82 353.516 1187 351.427C1196.14 348.767 1195 338.497 1195 331L1194.25 271C1193.81 265.073 1195.82 256.018 1191.57 251.228C1186.5 245.531 1173.88 248 1167 248L1119 248L1095 248.533M1226 248.533C1216.24 250.936 1218 261.162 1218 269L1218 326C1218 332.53 1215.95 343.434 1220.51 348.772C1225.41 354.498 1238.23 352 1245 352L1294 352L1318 351.566C1325.79 349.403 1326.47 339.703 1325.83 333L1325 275C1325 268.649 1327.11 257.549 1323.26 252.133C1318.58 245.563 1305.97 248 1299 248L1250 248L1226 248.533M1768 248.424C1761.24 249.312 1749.31 246.484 1744.43 252.148C1740.15 257.133 1742 266.884 1742 273L1742 328C1742 334.428 1739.77 345.814 1745.23 350.486C1752.97 357.107 1775.25 353 1785 353L1867 352C1879.45 352 1896 354.893 1908 351.566C1917.31 348.983 1914.62 337.28 1915.58 330C1918.08 310.897 1916 290.268 1916 271C1916 264.272 1917.38 254.349 1910.89 250.009C1902.37 244.309 1882.98 248 1873 248C1838.96 248 1801.81 243.985 1768 248.424M307.015 249.653C298.398 252.442 300 263.883 300 271L301 326C301 332.491 298.989 343.136 303.009 348.671C307.752 355.2 319.009 353 326 353L378 353C384.834 353 394.559 354.752 400.996 352.258C409.752 348.865 408 338.505 408 331L408 275C408 268.545 409.926 258.44 405.566 253.109C400.259 246.619 388.452 249 381 249L331 249C323.66 249 314.047 247.377 307.015 249.653M438.015 249.742C429.657 253.039 432 264.887 432 272L432 327C432 333.431 430.125 343.526 434.514 348.853C439.519 354.927 451.051 353.011 458 353L496 352.089C506.882 352.835 522.591 355.974 532.96 351.656C541.271 348.194 539 337.28 539 330L539 274C539 267.674 540.918 257.408 536.486 252.228C531.698 246.633 519.6 249 513 249L461 249C454.201 249 444.406 247.222 438.015 249.742M700.015 249.742C691.657 253.039 694 264.887 694 272L694 327C694 333.356 692.144 343.316 696.009 348.786C700.687 355.406 712.999 353 720 353L770 353C777.73 353 787.694 354.541 794.985 351.436C803.089 347.985 801 337.086 801 330L801 274C801 267.674 802.919 257.408 798.486 252.228C793.698 246.633 781.6 249 775 249L723 249C716.201 249 706.406 247.222 700.015 249.742M47.0046 250.742C38.5657 254.026 40 264.737 40 272L40 327C40 333.552 38.1848 343.396 42.5139 348.891C47.5391 355.27 58.829 353 66 353L118 353C125.418 353 133.926 355.4 140.985 352.297C148.446 349.017 147.657 337.945 147.961 331L148 275C148 268.382 149.369 258.598 144.567 253.228C139.597 247.67 127.723 250 121 250L70 250C63.174 250 53.431 248.241 47.0046 250.742M175.094 250.858C167.575 254.193 169 266.323 169 273L169 328C169 334.893 167.434 344.247 172.419 349.852C177.334 355.379 189.293 353 196 353L248 354C255.236 354 264.177 355.289 270.985 352.297C279.08 348.738 277 338.187 277 331L277 275C277 268.771 279.02 258.242 274.566 253.228C269.623 247.664 257.703 250 251 250L198 250C191.35 250 181.256 248.125 175.094 250.858z"/>
<path style="fill:#252526; stroke:none;" d="M480 286C485.543 296.99 491.928 286.332 492.361 279.004C492.581 275.28 477.692 261.161 492 270C488.368 257.768 477.667 269.87 479.746 277.906L487.369 286.678C486.75 289.513 481.375 286.522 480 286M92.0934 265.931C86.6786 267.471 88.3489 276.332 93.9707 275.168C100.094 273.901 98.244 264.183 92.0934 265.931M353 265L350 274C353.658 271.917 354.578 269.091 355 265L353 265M361 265L357 274C361.154 272.581 362.266 269.113 363 265L361 265M617 265C607.913 274.825 616.999 278.34 617 290L611 288L618 294C620.115 291.343 624.002 288.614 624.338 284.997L619 269L623 270L619 265L617 265M875 276C869.854 278.77 868.227 286.884 875.044 289.214L889 290C887.251 285.396 887.068 282.816 888 278L883 282L881.777 267.438C879.996 264.535 874.85 265.146 873.657 268.279L875 276M223 266L223 283L225 283L225 266L223 266M739.148 267.047C734.175 269.776 737.511 278.572 742.856 275.914C748.25 273.23 745.029 263.82 739.148 267.047M752 266L742 291C748.105 286.967 752.338 272.998 754 266L752 266M1014 266L1004 290C1010.38 285.823 1014.29 273.205 1016 266L1014 266M1141 266C1139.43 272.87 1136 285.118 1143 290C1141.17 281.113 1141.81 274.868 1143 266L1141 266M1529 271C1543.08 264.256 1534.22 276.186 1534 283L1536 283L1541.38 271.029C1540.3 263.767 1531.04 265.665 1529 271z"/>
<path style="fill:#e3e4e6; stroke:none;" d="M92.3179 268.175C89.3179 269.708 91.6882 274.355 94.6821 272.825C97.6821 271.292 95.3118 266.645 92.3179 268.175M740.275 268.256C736.734 269.901 738.914 276.194 742.686 273.914C745.666 272.114 743.686 266.671 740.275 268.256M876.603 268.086C874.238 269.847 876.777 274.187 879.258 272.114C881.555 270.195 879.207 266.147 876.603 268.086z"/>
<path style="fill:#252526; stroke:none;" d="M1271 267C1272.62 275.624 1271.68 282.399 1271 291C1275.15 286.234 1276.46 271.16 1271 267M1663 267C1664.91 270.153 1667.5 271.031 1671 272C1669.67 268.178 1666.8 267.574 1663 267z"/>
<path style="fill:#e3e4e6; stroke:none;" d="M617 277L617 269C612.741 271.382 613.577 274.112 617 277M489 282C493.895 270.049 473.645 277.385 489 282z"/>
<path style="fill:#252526; stroke:none;" d="M1396 274L1396 276L1413 276C1408.56 272.635 1401.39 274 1396 274z"/>
<path style="fill:#e3e4e6; stroke:none;" d="M875.189 278.176C869.382 280.769 874.117 290.067 879.833 286.802C884.399 284.193 879.327 276.328 875.189 278.176M618 280L618 289C623.219 287.268 622.296 282.369 618 280z"/>
<path style="fill:#252526; stroke:none;" d="M753.225 281.072C747.556 284.162 751.94 293.621 757.567 289.957C762.111 286.998 758.658 278.109 753.225 281.072z"/>
<path style="fill:#e3e4e6; stroke:none;" d="M753.589 283.086C751.013 284.945 753.325 290.494 756.415 288.673C759.39 286.92 756.805 280.765 753.589 283.086z"/>
<path style="fill:#252526; stroke:none;" d="M1396 282L1396 284L1413 283C1408.03 280.913 1401.36 282 1396 282M223 288L223 290L225 290L225 288L223 288M1534 288L1534 290L1536 290L1536 288L1534 288M219 308L224 309L224 334L226 334L226 307L219 308M349 317L354.143 310.407C357.846 309.001 359.91 312.934 358.853 316.004L349 333L363 333L363 331L352 331C355.584 326.35 365.623 316.424 361.242 310.148C356.325 303.103 347.779 310.376 349 317M881 307C876.305 312.113 871.657 317.623 872.109 325C872.41 329.928 876.291 335.762 881.891 332.806C890.568 328.225 885.344 315.884 876 318L883 308L881 307M91 308L85 321C88.4871 318.011 90.2482 314.206 92 310C94.8679 314.028 96.489 318.656 101 321C98.7339 316.146 96.3947 309.687 91 308M480 315C487.772 307.355 488.94 313.603 485 321C488.337 322.684 492.582 330.05 485.91 330.745L478 327C482.385 339.481 499.807 329.003 489 320C496.776 308.218 480.865 303.663 480 315M608 327L619 327L619 334L621 334C621.111 330.536 621.585 328.529 624 326L621 325C621.53 322.145 624.231 309.709 619.775 308.921C614.639 308.013 608.696 323.142 608 327M743 321C748.817 320.108 756.511 326.86 748.772 330.717L740 330C750.579 342.701 763.587 318.22 745 318C746.668 311.857 748.548 310.076 755 310C745.718 302.968 743.02 313.699 743 321M1002 308C1005.48 310.638 1009.76 310 1014 310L1005 334C1010.68 328.336 1015.6 315.872 1017 308L1002 308M1144 318C1149.23 314.303 1145.23 307.048 1139.06 308.478C1134.1 309.625 1135.61 314.322 1135.44 318L1133.76 328.981C1136.09 335.333 1144.88 335.227 1147.25 328.981C1148.84 324.804 1146.11 321.356 1144 318M1527 334L1529 334C1529 329.212 1527.03 313.699 1532.3 311.176C1537.95 308.471 1536.7 316.683 1534 319L1534 321C1540.07 324.407 1539.69 329.453 1534 333C1542.43 335.92 1543.24 323.644 1537 320C1540.58 315.003 1538.26 303.969 1530.5 309.183C1524.95 312.912 1527.02 328.036 1527 334M1275 324L1268 335C1275.66 331.4 1286.64 306.952 1271.04 309.248C1261.28 310.684 1264.01 326.984 1275 324M1401.1 310.032C1392.19 314.856 1395.79 339.792 1406.81 333.806C1415.55 329.058 1412.81 303.698 1401.1 310.032z"/>
<path style="fill:#e3e4e6; stroke:none;" d="M618 310L611 325L619 325L620 310L618 310M1138.74 311.047C1135.37 313.616 1138.66 319.57 1142.56 316.953C1146.32 314.423 1142.33 308.316 1138.74 311.047M1270.14 312.047C1264.51 315.154 1268.88 325.405 1274.57 321.802C1279.26 318.825 1276.06 308.788 1270.14 312.047M1402.22 312.047C1396.42 315.344 1397.64 336.082 1405.78 331.914C1412.31 328.561 1410.72 307.223 1402.22 312.047z"/>
<path style="fill:#252526; stroke:none;" d="M1662 316C1665.86 315.332 1668.92 314.432 1671 311C1667.01 311.601 1664.07 312.416 1662 316M1864 325L1879 334L1868 324C1879.04 326.05 1890.8 325 1902 325L1902 323L1868 323L1879 314C1873.28 315.824 1866.78 319.555 1864 325z"/>
<path style="fill:#e3e4e6; stroke:none;" d="M878.04 319.851C871.655 321.824 873.986 333.102 880.772 330.377C885.832 328.346 884.035 317.998 878.04 319.851M1140.09 321.06C1134.75 321.89 1135.16 332.186 1140.99 331.534C1146.66 330.898 1145.71 320.187 1140.09 321.06z"/>
<path style="fill:#252526; stroke:none;" d="M1820 371.428C1813.75 372.334 1807.75 374.346 1805.65 381.001L1804.83 402C1802.81 423.242 1800.77 449.894 1804.33 471C1805.93 480.503 1812.93 484.56 1822 484.961C1826.58 485.163 1835.07 483.189 1836.68 489.059C1838.86 496.99 1837 507.783 1837 516L1837 575C1837 585.127 1833.83 601.188 1842.11 608.772C1846.93 613.184 1853.97 612 1860 612C1875.23 612 1891.94 613.948 1907 611.699C1921.61 609.517 1920 595.317 1920 584L1920 499L1921 410C1921 400.055 1923.93 384.216 1916.61 376.214C1910.29 369.306 1899.39 371 1891 371C1867.97 371 1842.79 368.127 1820 371.428M899 372.533C892.208 374.184 887.441 380.107 887.043 387L887 452C887 460.161 884.859 471.895 889.703 478.985C895.346 487.243 906.302 485 915 485L967 485C975.072 485 985.24 486.634 993 484.196C1002.43 481.235 1003 471.353 1003 463L1003 403C1003 395.065 1004.82 384.69 999.581 378.019C994.253 371.231 981.997 372.039 974 372.001L924 372L899 372.533M1030 372.532C1023.04 374.194 1018.45 379.922 1018.04 387L1018 452C1018 460.068 1016 471.876 1020.74 478.957C1026.19 487.11 1037.58 485 1046 485L1099 485C1106.68 485 1116.63 486.663 1124 484.347C1133.54 481.351 1134 471.341 1134 463L1134 403C1134 395.127 1135.86 384.628 1130.58 378.044C1125.09 371.193 1113.06 372.003 1105 372L1055 372L1030 372.532M1161 372.482C1152.41 374.32 1149.1 381.953 1149 390L1149 453C1149 461.384 1147.15 472.779 1152.65 479.892C1158.26 487.142 1169.97 485 1178 485L1229 485L1254 484.467C1263.52 482.153 1264.99 473.415 1265 465L1265 403C1265 395.037 1267.1 383.708 1261.44 377.213C1255.11 369.936 1243.59 372 1235 372C1211.8 372 1183.67 367.634 1161 372.482M1292 372.533C1284.1 374.454 1280.39 381.369 1280.04 389L1280 453C1280 460.907 1277.94 472.132 1282.85 478.906C1288.43 486.592 1299.69 485 1308 485L1360 485C1367.79 485 1377.48 486.538 1385 484.362C1395.27 481.388 1396 472.078 1396 463L1396 402C1396 394.35 1398.09 383.328 1392.61 377.133C1386.49 370.216 1375.24 372 1367 372L1317 372L1292 372.533M1422 372.573C1413.26 375.081 1411.1 384.03 1411 392L1411 454C1411 461.966 1409.2 473.129 1414.65 479.786C1420.45 486.865 1431.95 485 1440 485L1491 485C1498.88 485 1508.37 486.418 1516 484.211C1526.74 481.101 1527 471.419 1527 462L1527 402C1527 394.252 1528.93 383.512 1523.58 377.105C1517.54 369.866 1506.38 372 1498 372L1447 372C1439.25 372 1429.49 370.424 1422 372.573M1553 372.649C1543.39 375.561 1542.42 385.372 1542.04 394L1542 453C1542 461.167 1540.16 471.824 1545.13 478.895C1550.53 486.569 1561.84 485 1570 485L1623 485C1631.2 485 1641.18 486.494 1649 483.576C1658.41 480.063 1658 470.335 1658 462L1658.04 400C1657.75 392.675 1660.03 383.001 1654.77 377.055C1648.45 369.91 1637.58 372 1629 372L1578 372C1570.27 372 1560.44 370.394 1553 372.649M1684 372.638C1674.92 375.294 1673.22 384.721 1673.01 393L1673 453C1673 460.702 1671.12 471.282 1675.7 477.985C1681.46 486.405 1692.1 485 1701 485L1752 485C1760.58 485 1770.75 486.471 1779 483.775C1789.05 480.493 1789 470.856 1789 462L1789 402C1789 394.708 1791.17 383.275 1786.35 377.188C1780.59 369.922 1769.14 372 1761 372L1709 372C1701.23 372 1691.5 370.445 1684 372.638M47 373.533C37.2015 375.916 36.0005 384.449 36 393L36 456C36 464.339 34.1742 475.461 41.1088 481.656C49.7681 489.392 71.9972 486 83 486L166 486C179.136 486 195.355 488.487 207.999 484.351C217.962 481.092 217 470.465 217 462L217 399C217 391.053 218.528 380.909 210.956 375.728C201.011 368.923 179.601 373 168 373L86 373C73.8161 373 58.8544 370.651 47 373.533M243 373.483C232.503 375.776 232.001 386.219 232 395L232 454C232 462.396 230.378 472.696 235.699 479.906C241.216 487.381 252.869 485 261 485C284.402 485 314.353 491.346 336.999 485.072C346.125 482.543 347.987 474.409 348 466L348 404C348 395.964 350.059 384.785 344.442 378.188C338.193 370.848 326.575 373 318 373C294.553 373 265.884 368.484 243 373.483M373 373.653C363.006 376.792 363 386.374 363 395L363 455C363 462.921 361.285 473.254 366.569 479.906C372.56 487.448 384.461 485 393 485L444 486C452.11 486 461.193 487.144 468.996 484.532C478.957 481.196 479 471.891 479 463L479 404C479 395.961 480.606 384.933 475.347 378.108C469.757 370.852 458.019 373 450 373L398 373C390.322 373 380.371 371.338 373 373.653M504 373.653C494.006 376.792 494 386.374 494 395L494 454C494 461.629 492.184 472.293 496.728 478.957C502.39 487.262 513.281 486 522 486L573 486C581.611 486 591.758 487.45 600 484.517C609.909 480.99 610 471.86 610 463L610 403C610 395.239 611.657 384.612 606.428 378.108C600.64 370.908 589.146 373 581 373L529 373C521.322 373 511.371 371.338 504 373.653M634.001 373.858C624.458 377.742 625 387.457 625 396L625 455C625 462.816 623.246 473.375 628.43 479.956C634.118 487.178 644.854 485 653 485L707 485C714.5 485 724.962 486.855 731.999 483.991C741.405 480.163 741 470.498 741 462L741 403C741 395.343 742.714 384.544 737.428 378.189C731.693 371.294 720.946 373 713 373L659 373C651.621 373 640.908 371.047 634.001 373.858M766 373.573C755.975 376.453 756 386.545 756 395L756 454C756 461.62 754.074 472.366 758.703 478.957C764.384 487.045 775.421 485 784 485L837 485C844.679 485 854.629 486.662 862 484.347C871.685 481.306 871.999 471.454 872 463L872 403C872 395.215 873.642 384.642 868.428 378.105C862.602 370.801 851.248 373 843 373L791 373C783.251 373 773.486 371.422 766 373.573z"/>
<path style="fill:#e3e4e6; stroke:none;" d="M899 375.533C888.886 377.996 890 387.718 890 396L890 452C890 458.578 888.024 469.17 891.858 474.891C896.321 481.552 909.086 479 916 479L967 479C974.302 479 983.977 480.653 990.96 478.347C999.389 475.563 997 463.898 997 457L997 401C997 394.966 999.022 384.38 995.107 379.344C990.537 373.466 977.583 376 971 376C948.49 376 921.025 370.169 899 375.533M1239 375.424C1219.52 377.982 1198.65 376 1179 376C1172.42 376 1160.65 373.758 1155.43 378.653C1150.43 383.348 1152 393.844 1152 400L1153 456C1153 462.611 1150.74 473.725 1157.11 477.991C1164.53 482.966 1179.61 479.969 1188 479.17C1208.87 477.184 1231.4 482.55 1252 478.772C1263.54 476.655 1260 458.452 1260 450L1260 401C1260 394.724 1261.66 385.589 1257.99 380.109C1254.06 374.231 1245.18 374.613 1239 375.424M1422 375.573C1412.57 378.293 1414 388.278 1414 396L1414 452C1414 458.575 1412.02 469.137 1416.01 474.786C1420.69 481.406 1433 479 1440 479L1491 479C1498.22 479 1508.19 480.753 1515 478.106C1523.61 474.757 1522 464.436 1522 457L1522 401C1522 394.411 1523.94 383.801 1519.3 378.394C1514.31 372.592 1501.82 375 1495 375L1446 375C1438.55 375 1429.2 373.497 1422 375.573M1554 375.533C1544.24 377.936 1546 388.161 1546 396L1546 452C1546 458.412 1543.92 469.392 1547.74 474.891C1552.36 481.528 1565 479 1572 479L1622 479L1646 478.566C1655.09 476.062 1654 465.367 1654 458L1654 401C1654 394.634 1655.9 384.458 1651.49 379.225C1646.11 372.853 1634.36 375 1627 375L1578 375L1554 375.533M1685 375.533C1675.01 377.974 1676 387.831 1676 396L1676 453C1676 459.801 1674.15 470.069 1678.7 475.775C1684.28 482.764 1695.53 479.366 1703 479.039L1754 479C1761.14 479 1770.1 480.434 1777 478.427C1786.19 475.752 1784 464.398 1784 457L1784 401C1784 394.927 1786 384.43 1782.11 379.34C1777.08 372.778 1765.19 375 1758 375L1709 375L1685 375.533M1855 375.424L1825 376C1820.47 376 1814.9 375.175 1811.23 378.434C1805.8 383.256 1808 394.473 1808 401L1808 452C1808 458.172 1806.06 468.397 1809.03 473.956C1815.16 485.446 1836.06 471.777 1839.68 486.004C1841.81 494.389 1840 505.355 1840 514L1840 572C1840 581.23 1835.48 596.07 1842.43 603.772C1846.47 608.242 1853.59 607 1859 607C1874.04 607 1891.18 609.312 1906 606.775C1916.1 605.046 1915 594.853 1915 587L1915.04 528L1916 418C1916 408.647 1920.04 386.511 1913.57 379.228C1909.74 374.927 1903.16 376 1898 376L1855 375.424M636.004 376.653C626.894 379.549 628 390.366 628 398L628.911 456C629.308 461.802 627.062 470.908 630.603 475.891C635.206 482.367 647.12 480 654 480L705 480C712.34 480 721.952 481.623 728.985 479.347C737.766 476.506 736 465.222 736 458L736 403C736 396.47 737.41 385.784 733.258 380.225C728.531 373.896 716.833 376 710 376L660 376C652.63 376 643.075 374.404 636.004 376.653M767.001 376.573C757.265 379.38 759 390.094 759 398L759 453C759 459.578 757.024 470.17 760.858 475.891C765.225 482.409 777.245 480 784 480L836 480C843.069 480 853.344 481.876 859.985 479.258C868.138 476.042 866 464.954 866 458L866 402C866 395.605 867.953 385.381 863.566 380.133C858.332 373.872 847.239 376 840 376L791 376C783.552 376 774.197 374.497 767.001 376.573M1027.02 376.742C1018.66 380.039 1021 391.888 1021 399L1021 454C1021 460.235 1019.1 470.356 1023.01 475.66C1028.3 482.83 1039.62 479.012 1047 479L1087 479.17C1096.88 480.11 1111.55 482.603 1121 478.852C1129.77 475.368 1128 465.689 1128 458L1128 401C1128 394.673 1129.92 384.408 1125.49 379.228C1120.7 373.633 1108.6 376 1102 376L1050 376C1043.2 376 1033.41 374.222 1027.02 376.742M1289.02 376.742C1280.86 379.958 1283 391.046 1283 398L1283 454C1283 460.009 1280.97 470.708 1284.74 475.775C1289.46 482.105 1301.18 480.003 1308 480L1359 480C1366.37 480 1376.03 481.616 1383 478.852C1391.77 475.368 1390 465.689 1390 458L1390 401C1390 394.771 1392.02 384.242 1387.57 379.228C1382.62 373.664 1370.7 376 1364 376L1312 376C1305.2 376 1295.41 374.222 1289.02 376.742M242.015 377.703C233.117 380.805 235 391.552 235 399L235 454C235 460.844 233.173 471.021 237.703 476.786C242.698 483.144 253.905 481.011 261 481L312 480C319.324 480 330.113 481.986 336.981 479.258C344.998 476.073 343 464.838 343 458L342 402C342 395.771 344.02 385.242 339.566 380.228C334.623 374.664 322.703 377 316 377L266 377C258.739 377 248.926 375.294 242.015 377.703M373.015 377.742C364.657 381.039 367 392.887 367 400L367 454C367 460.356 365.15 470.355 368.858 475.891C373.587 482.951 385.87 481.127 393 480.285C410.235 478.252 428.644 480 446 480C452.773 480 462.611 481.783 468.906 478.991C476.462 475.639 474 463.664 474 457L474 402C474 395.771 476.02 385.242 471.566 380.228C466.623 374.664 454.703 377 448 377L396 377C389.201 377 379.406 375.222 373.015 377.742M503.044 377.858C495.037 381.31 497 393.027 497 400L497 455C497 461.195 495.955 471.908 500.318 476.853C506.13 483.44 516.522 480.037 524 480.001L576 480C582.739 480 592.644 481.817 598.957 479.258C607.126 475.946 605 463.956 605 457L605 403C605 396.387 606.68 385.92 602.262 380.344C597.717 374.608 585.467 377 579 377L526 377C519.28 377 509.296 375.163 503.044 377.858M47.0154 378.742C38.7992 381.977 40 391.897 40 399L41 457C41.0105 463.532 38.7939 474.739 44.2284 479.566C51.511 486.036 73.6467 482 83 482L172 482C181.73 482 199.27 485.374 207.981 480.821C215.324 476.983 213 465.872 213 459L213 401C213 394.477 215.028 384.304 208.811 380.009C200.333 374.153 180.032 378 170 378L84 378C73.4247 378 56.8857 374.856 47.0154 378.742z"/>
<path style="fill:#252526; stroke:none;" d="M1732 394L1731 399L1726 397L1730 400L1726 403L1731 402L1731 407L1733 407L1733 402L1738 404L1734 401L1738 397L1733 399L1732 394M1596 408L1596 411L1598 411L1598 408L1596 408M1603 411L1606 408C1603.64 408.482 1603.48 408.636 1603 411M406 413C406.392 422.131 407.371 432.564 411 441L413 441L420 418C423.392 424.758 422.982 437.143 430 441C432.851 432.578 434.816 421.898 435 413C429.532 417.162 430.209 430.511 429 437C425.742 429.642 423.172 420.964 422 413C413.842 415.681 416.209 430.037 411 436L408 413L406 413M545 414L545 441L557 441L557 439L547 439L547 429L557 428L547 427L547 416L558 416L558 414L545 414M805 415C815.293 419.818 812 431.767 812 442L814 442L815 416L822 416C817.665 412.716 810.029 413.513 805 415M1064 414C1064 420.852 1062.24 430.661 1065.57 436.892C1069.02 443.351 1079.37 443.422 1082.82 436.956C1085.98 431.035 1084 420.568 1084 414L1082 414C1082 420.441 1084.02 431.385 1079.3 436.566C1075.54 440.691 1069.47 438.409 1067.18 433.981C1064.68 429.154 1066.04 419.237 1067 414L1064 414M1205 414C1205 422.909 1203.47 433.434 1206 442C1209.42 433.861 1208 422.707 1208 414L1205 414M1333.02 415.028C1319.05 422.233 1328.84 448.112 1343.81 439.543C1356.29 432.4 1347.76 407.421 1333.02 415.028M1463 414C1462.99 423.195 1460.34 433.011 1463 442C1465.89 438.183 1465.06 433.465 1464 429C1472.49 432.176 1485.42 423.635 1475.61 415.742C1472.33 413.111 1466.92 414 1463 414M302 443C299.112 435.186 303.615 424.923 297.57 418.228C286.152 405.582 272.393 427.663 281.652 438.775C287.204 445.439 295.128 440.208 302 443M675 415L675 443C677.638 439.518 677 435.239 677 431L690 443L682 430C688.381 429.012 693.246 421.635 686.772 416.742C683.565 414.319 678.773 415 675 415M936 415L936 417L950 417C944.819 424.617 936.237 433.697 935 443L953 443L953 440L938 440C943.058 432.502 950.923 423.84 953 415L936 415M1591 415L1590 426L1590.39 434.999C1592.03 442.069 1600.98 445.659 1606.7 440.486C1610.98 436.612 1612.64 418.382 1608 415C1608 421.497 1610 432.399 1605.44 437.721C1601.52 442.296 1595.46 439.696 1593.03 434.985C1590.19 429.495 1592.26 420.821 1593 415L1591 415z"/>
<path style="fill:#e3e4e6; stroke:none;" d="M1334.06 417.028C1324.31 422.321 1330.18 444.523 1341.89 437.972C1351.49 432.6 1346.56 410.238 1334.06 417.028M1465 416L1465 428C1478.27 427.953 1478.39 416.112 1465 416M295 439L292 433L297 435L297.981 427C297.454 399.863 265.524 436.092 288.014 439.757L295 439M677 417L677 428C689.73 427.955 689.566 417.114 677 417z"/>
<path style="fill:#252526; stroke:none;" d="M95 432L94 462L96 462C96 453.186 98.4105 440.128 95 432M1888 433L1888 435L1898.68 436.028C1903.04 438.934 1901.54 448.538 1896.94 450.397C1887.32 454.283 1870.38 451 1860 451L1871 442C1865.42 444.111 1858.77 447.573 1856 453L1871 462L1861 453C1871.2 453 1889.49 456.584 1898.77 452.397C1903.22 450.392 1903.59 437.796 1900.4 434.603C1897.66 431.868 1891.53 433 1888 433M77 437C79.1935 441.009 82.9319 443.075 87 445C77.0324 447.946 64.3768 446 54 446L54 448L87 448L76 457L92 448C88.0949 443.275 82.3315 439.968 77 437M570 445L570 452C576.449 455.619 581.475 465.498 589 457C582.299 458.115 578.583 458.739 575 452L585 452L585 450L574 450L574 447L585 447L585 445L575 445C578.865 437.771 583.156 439.067 590 441C582.049 431.99 576.947 441.101 570 445M1731 441C1730.81 446.84 1728.84 448.81 1723 449L1723 451L1731 451L1731 458C1733.27 453.14 1734.18 451.189 1740 451L1740 449L1732 449L1731 441M1719 499.468C1711.91 500.831 1706.83 505.662 1706.1 513C1703.95 534.889 1706 557.997 1706 580C1706 588.084 1703.78 599.999 1708.85 606.895C1714.3 614.304 1725.97 612 1734 612L1785 612C1793.25 612 1802.98 613.398 1811 611.291C1820.05 608.911 1821.9 600.263 1822 592L1822 530C1822 521.989 1823.99 510.763 1818.28 504.225C1812.16 497.213 1800.27 499 1792 499C1768.84 499 1741.73 495.098 1719 499.468M49 500.479C37.8665 502.778 36.7474 512.393 36.0895 522L37 584C37 592.856 34.6756 604.924 43.0941 610.736C47.6744 613.898 53.7192 613 59 613L93 613L194 613C207.758 613 226.832 616.446 240 612.486C250.149 609.434 250 599.586 250 591L250 528C250 519.58 252.118 508.613 243.907 503.287C231.867 495.478 205.924 500 192 500L96 500C81.104 500 63.5943 497.466 49 500.479M277 500.533C268.24 502.663 265.218 510.823 265.015 519L265 581C265 589.231 263.322 600.897 268.804 607.812C274.564 615.078 285.836 613 294 613L345 613C353.222 613 363.055 614.446 371 612.057C380.749 609.125 380.999 599.523 381 591L381 530C381 522.258 382.918 511.649 377.362 505.34C371.301 498.459 360.164 500 352 500L302 500L277 500.533M409 500.468C399.83 502.246 396.677 509.463 396.09 518L396 580C396 588.445 394.052 599.575 399.133 606.906C404.745 615.001 416.46 613 425 613L476 613L501 612.467C510.516 610.153 511.986 601.415 512 593L512 532C512 523.904 514.002 512.81 508.581 506.044C503.151 499.266 491.007 500.013 483 500C459.561 499.962 431.994 496.011 409 500.468M539 500.529C531.433 502.281 527.24 508.452 527.015 516L527 581C527 589.411 525.162 600.747 530.652 607.895C536.3 615.25 547.863 613 556 613L607 613C614.883 613 624.375 614.418 632 612.211C640.681 609.697 642.959 602.21 642.999 594L643 532C643 524.169 644.88 512.647 639.567 506.105C633.415 498.529 622.631 500 614 500L564 500L539 500.529M669 500.638C659.689 503.334 658.014 511.472 658 520L658 582C658 590.084 656.023 601.14 661.499 607.892C667.328 615.079 678.833 613 687 613L737 613C745.223 613 755.053 614.444 763 612.057C771.791 609.417 773.899 601.201 773.996 593L774 531C774 523.164 775.877 512.588 770.581 506.055C764.348 498.365 753.773 500 745 500L694 500C686.215 500 676.519 498.461 669 500.638M803 500.429C795.742 501.507 790.387 505.32 789.213 513C785.905 534.63 789 559.101 789 581C789 588.771 786.995 600.17 791.728 606.906C797.336 614.887 808.571 613 817 613C840.792 613 868.654 617.022 892 612.532C902.653 610.483 904.953 601.601 904.999 592L905 531C905 523.317 906.679 512.522 901.567 506.055C895.382 498.229 883.781 500 875 500C851.68 500 826.059 497.005 803 500.429M932 500.479C921.476 502.653 920.004 511.827 920 521L920 582C920 589.416 917.887 600.635 922.653 606.895C928.593 614.698 939.416 613 948 613L998 613C1006.68 613 1016.56 614.284 1025 611.941C1034.25 609.374 1035.99 600.356 1036 592L1036 531C1036 523.033 1037.69 511.849 1032.2 505.225C1026.32 498.139 1014.1 500 1006 500C982.702 500 954.798 495.77 932 500.479M1063 500.479C1055.55 502.017 1051.4 507.586 1051.04 515L1051 580C1051 587.95 1048.83 600.034 1053.73 606.895C1059.27 614.666 1070.75 613 1079 613L1129 613C1137.75 613 1147.48 614.159 1156 611.811C1165.26 609.259 1166.99 600.356 1167 592L1167 531C1167 523.048 1168.81 511.861 1163.35 505.224C1157.38 497.972 1146.25 500 1138 500C1114.39 500 1086.1 495.709 1063 500.479M1192 500.653C1182.44 503.655 1182 512.63 1182 521L1182 582C1182 589.412 1179.88 600.64 1184.65 606.895C1190.51 614.574 1201.54 613 1210 613L1261 613C1269.77 613 1279.6 614.252 1288 611.235C1297.24 607.917 1298 598.497 1298 590L1298 530C1298 522.213 1299.79 511.645 1294.43 505.185C1288.38 497.896 1277.41 500 1269 500L1217 500C1209.32 500 1199.37 498.338 1192 500.653M1323 500.653C1313.6 503.605 1313 512.722 1313 521L1313 582C1313 589.416 1310.89 600.635 1315.65 606.895C1321.59 614.698 1332.42 613 1341 613L1391 613C1400 613 1410.33 614.307 1419 611.362C1428.63 608.091 1428.33 597.471 1428.91 589L1429 530C1429 521.979 1430.62 511.896 1425.35 505.105C1419.66 497.764 1408.17 500 1400 500L1348 500C1340.32 500 1330.37 498.338 1323 500.653M1454 500.653C1444.16 503.742 1444 513.467 1444 522L1444 582C1444 589.64 1442.05 600.365 1446.85 606.895C1452.3 614.304 1463.97 612 1472 612L1512 612.09C1523.78 612.896 1538.59 615.484 1550 611.387C1560.3 607.686 1558.43 597.742 1559.58 589C1562.13 569.577 1560 548.592 1560 529C1560 521.474 1561.78 511.331 1556.58 505.105C1550.54 497.866 1539.38 500 1531 500L1479 500C1471.32 500 1461.37 498.338 1454 500.653M1585 500.573C1575.14 503.407 1575 513.636 1575 522L1575 582C1575 589.64 1573.05 600.365 1577.85 606.895C1583.3 614.304 1594.97 612 1603 612L1656 612C1663.66 612 1673.65 613.68 1681 611.347C1691.23 608.098 1689.33 597.298 1690.42 589C1692.98 569.52 1691 548.648 1691 529C1691 521.432 1692.75 511.378 1687.58 505.094C1681.55 497.767 1670.45 500 1662 500L1610 500C1602.25 500 1592.49 498.422 1585 500.573z"/>
<path style="fill:#e3e4e6; stroke:none;" d="M865 503.424C848.729 505.561 831.408 504 815 504C809.168 504 799.939 502.249 795.228 506.434C789.8 511.256 792 522.473 792 529L792 585C792 592.024 790.111 601.74 797.044 606.142C804.277 610.734 816.996 607.638 825 607.09C846.436 605.622 869.886 610.639 890.999 606.772C904.024 604.386 899 576.743 899 567L899 524C899 518.301 900.232 510.775 895.721 506.394C889.447 500.3 873.031 502.37 865 503.424M986 503.424L944 504C938.509 504 930.852 502.68 926.394 506.653C921.221 511.263 923 520.814 923 527L924 584C924 590.656 921.912 601.538 928.214 605.991C934.39 610.355 946.779 608 954 608C975.996 608 1000.33 610.895 1022 606.981C1037.06 604.261 1031 569.62 1031 558L1031 523C1031 517.536 1031.7 511.496 1027.72 507.133C1020.43 499.15 995.963 502.116 986 503.424M1193 503.573C1183.59 506.291 1185 517.318 1185 525L1185 580C1185 586.78 1183.27 596.792 1187.14 602.786C1191.45 609.47 1204.23 607 1211 607L1263 607C1269.83 607 1279.57 608.759 1286 606.258C1294.43 602.974 1293 592.263 1293 585L1293 529C1293 522.423 1294.8 512.682 1290.35 507.214C1285.06 500.729 1273.39 503 1266 503L1217 503C1209.55 503 1200.19 501.495 1193 503.573M1389 503.424C1373.05 505.519 1356.08 504 1340 504C1334.01 504 1324.43 502.209 1319.34 506.009C1313.05 510.715 1315.2 521.413 1315.83 528L1316 584C1316 590.547 1313.88 601.632 1320.21 605.91C1327.53 610.85 1340.82 607.65 1349 607.09C1370.44 605.622 1393.89 610.639 1415 606.772C1428.02 604.386 1423 576.742 1423 567L1423 524C1423 518.301 1424.23 510.775 1419.72 506.394C1413.45 500.301 1397.03 502.37 1389 503.424M1454 503.742C1445.25 507.135 1447 517.495 1447 525L1447 581C1447 587.395 1445.05 597.619 1449.43 602.867C1454.67 609.128 1465.76 607 1473 607L1524 607C1531.21 607 1541.19 608.755 1548 606.106C1556.45 602.816 1555 592.316 1555 585L1555 529C1555 522.545 1556.93 512.44 1552.57 507.109C1547.38 500.77 1536.27 503 1529 503L1477 503C1470.17 503 1460.44 501.248 1454 503.742M1629 503.594L1595 504C1590.52 504 1584.87 503.144 1581.28 506.434C1576.2 511.087 1578 520.824 1578 527L1578 583C1578 589.347 1575.94 599.87 1581.23 604.566C1586.67 609.404 1599.2 607 1606 607C1628.97 607 1653.15 609.181 1676 606.895C1686.37 605.858 1686 596.122 1686 588L1686 531C1686 524.275 1687.91 513.964 1683.99 508.109C1680.61 503.061 1674.3 504 1669 504L1629 503.594M1715.02 503.742C1706.86 506.958 1709 518.046 1709 525L1709 580C1709 586.202 1707.04 596.561 1710.74 601.891C1715.51 608.76 1726.81 607 1734 607L1787 606C1794.69 606 1803.61 608.454 1810.96 605.272C1818.72 601.91 1817 590.805 1817 584L1817 528C1817 521.667 1818.91 511.517 1814.35 506.394C1809.21 500.625 1796.93 503 1790 503L1738 503C1731.2 503 1721.41 501.222 1715.02 503.742M278.001 504.479C267.551 506.648 269 516.591 269 525L269 581C269 587.578 267.024 598.17 270.858 603.891C275.321 610.552 288.086 608 295 608L345 608C352.436 608 361.816 609.516 368.996 607.427C378.193 604.752 376 593.398 376 586L376 529C376 522.511 377.87 512.639 373.196 507.394C368.059 501.631 355.935 504 349 504C326.648 504 299.87 499.94 278.001 504.479M407.001 504.573C397.422 507.338 399 518.211 399 526L399 581C399 587.925 397.333 597.922 401.728 603.867C406.448 610.25 418.087 608 425 608L476 608C483.217 608 493.186 609.753 499.995 607.106C508.873 603.656 507 592.618 507 585L507 529C507 522.355 508.533 512.609 503.57 507.279C498.442 501.77 486.79 504 480 504L431 504C423.553 504 414.195 502.495 407.001 504.573M572 504.428C562.673 505.542 540.346 500.628 533.43 507.434C528.533 512.252 530 521.808 530 528L531 583C531 589.527 528.8 600.744 534.228 605.566C539.674 610.404 552.195 608 559 608C581.48 608 606.816 611.303 628.999 607.786C639.494 606.122 638 595.022 638 587L638 532C638 525.239 639.894 515.008 635.991 509.105C632.14 503.282 625.104 504 619 504L572 504.428M669.004 504.653C659.894 507.549 661 518.366 661 526L661 580C661 586.726 659.098 597.034 662.858 602.956C667.493 610.256 678.615 608 686 608L738 608C745.069 608 755.345 609.876 761.985 607.258C770.343 603.961 768 592.112 768 585L769 530C769 523.436 770.586 513.795 766.272 508.225C761.398 501.93 749.939 504 743 504L693 504C685.63 504 676.075 502.404 669.004 504.653M1061 504.742C1052.88 507.889 1053.65 516.936 1054.58 524C1057.04 542.772 1055.03 563.066 1055 582C1054.99 588.795 1051.8 597.987 1056.65 603.772C1061.36 609.377 1073.45 607 1080 607L1133 607C1139.66 607 1149.69 608.86 1155.91 606.258C1163.03 603.277 1162 591.291 1162 585L1162 530C1162 523.545 1163.93 513.44 1159.57 508.109C1154.38 501.77 1143.27 504 1136 504L1084 504C1077.17 504 1067.44 502.248 1061 504.742M47.0046 506.742C39.1558 509.797 40 519.133 40 526L41 585C41 591.673 38.7691 602.847 45.1088 607.258C48.9184 609.908 54.6137 609 59 609L91 609L197 609C208.46 609 229.744 613.107 239.985 607.821C247.477 603.953 246 595.036 246 588L245 530C245 523.495 247.449 511.272 240.811 507.318C236.777 504.914 230.504 506 226 506L193 506L91 506C78.4968 506 58.667 502.204 47.0046 506.742z"/>
<path style="fill:#252526; stroke:none;" d="M56.314 522.072C52.4056 524.425 55.4374 530.967 59.6867 528.712C63.9116 526.47 60.7792 519.383 56.314 522.072M1766 521L1762 530C1765.12 527.957 1767.02 524.708 1766 521M1629 533L1629 536L1632 535L1629 533M1636 533C1636.48 535.364 1636.64 535.518 1639 536L1638 533L1636 533M1497 535L1500 537L1500 534L1497 535M1505 534L1505 537L1507 537L1507 534L1505 534M849 555L856 555L853.991 560.9C842.269 578.251 828.606 541.535 848 543.257L856 546C851.484 531.569 833.154 544.913 835.344 557C837.838 570.76 858.968 571.16 857.758 556.059C857.33 550.706 851.187 551.627 849 555M1622 568C1629.48 563.528 1631.5 562 1641 562C1641.63 565.075 1642.28 566.427 1645 568L1635 540C1627.86 543.733 1623.16 560.278 1622 568M575 569C586.995 568.999 602.03 558.61 591.146 545.34C588.494 542.107 579.372 538.381 576.028 542.603C572.192 547.446 575 562.926 575 569M709 569C713.033 566.385 712 561.386 712 557L721 557L721 554L712 554L712 544L722 544C719.603 540.302 711.722 539.295 709.603 544.148C706.792 550.587 709 562.01 709 569M968 541C965.468 549.566 967 560.091 967 569L969 569L970 556L985 556L984 569C989.994 565.114 987 548.631 987 542L984 542L985 554L970 554C969.916 549.808 970.306 544.508 968 541M1231 541L1230 568L1232 568L1233 555C1238.05 559.241 1242.59 566.162 1249 568L1237 552C1241.9 549.715 1245.71 545.901 1248 541L1233 553L1233 541L1231 541M1365 541L1364 568L1378 569L1378 566C1362.75 566.114 1367 553.332 1367 541L1365 541M1498.04 541.859C1484.52 547.545 1491.23 574.588 1506.96 567.181C1519.78 561.14 1513.02 535.561 1498.04 541.859M322 542C316.857 549.549 313.409 560.194 311 569C318.385 564.7 320.908 563 330 563C330.173 566.17 330.356 568.136 333 570C331.754 561.566 328.393 547.844 322 542z"/>
<path style="fill:#e3e4e6; stroke:none;" d="M1501 542.758C1489.45 545.282 1491.39 569.04 1503.98 566.102C1514.92 563.55 1512.73 540.195 1501 542.758z"/>
<path style="fill:#252526; stroke:none;" d="M445 566C448.913 572.699 460.309 570.295 460.522 562C460.628 557.874 440.262 545.197 454.956 545.634L459 546C455.512 541.064 444.977 542.754 445.662 549.985C445.861 552.08 467.29 569.867 450.024 567.348L445 566z"/>
<path style="fill:#e3e4e6; stroke:none;" d="M578 543L577 566C580.435 565.998 584.738 566.559 587.606 564.258C597.758 556.112 588.065 543.216 578 543z"/>
<path style="fill:#252526; stroke:none;" d="M1110 543C1110 550.383 1113.69 568.836 1102 566C1103.72 570.901 1110 570.788 1112.11 565.891C1114.81 559.607 1113 549.748 1113 543L1110 543z"/>
<path style="fill:#e3e4e6; stroke:none;" d="M1633 543L1628 559L1639 559C1638.11 553.81 1636.35 547.078 1633 543M322 545L316 561L328 561C326.764 555.658 325.304 549.417 322 545z"/>
<path style="fill:#252526; stroke:none;" d="M54 566L60 566L60 577C71.369 577.488 75 578.832 75 566L82 566C74.9305 550.84 61.1697 551.208 54 566z"/>
<path style="fill:#e3e4e6; stroke:none;" d="M57 565L62 565C62.001 574.402 63.598 575.999 73 576L73 565L79 565C72.4722 553.601 63.5278 553.601 57 565z"/>
<path style="fill:#252526; stroke:none;" d="M1762 564C1760.81 567.604 1760.45 570.101 1757 572L1760 573L1760 579L1756 579L1759 581L1758 588C1761.34 585.146 1760.84 581.823 1766 581L1765 589C1766.94 586.44 1766.96 584.192 1767 581L1771 581L1768 579L1772 573L1769 572L1770 565L1768 565C1767.67 569.331 1766.57 571.396 1762 571L1762 564M1408 582C1404.11 583.294 1400.14 585.629 1396.09 583.529C1389.15 579.926 1390.08 570.387 1397 567.361C1405.36 563.709 1411.43 575.573 1403 580L1405 571C1401.18 570.927 1389.7 571.266 1394.07 578.679C1397.69 584.82 1409.62 580.829 1409.76 573.996C1409.99 562.261 1392.11 563.046 1389.43 573.001C1386.37 584.385 1401.03 589.899 1408 582z"/>
<path style="fill:#e3e4e6; stroke:none;" d="M1397.5 573.086C1394.66 574.919 1396.21 580.648 1399.58 578.249C1402.33 576.298 1401.01 570.816 1397.5 573.086M1762 574L1761 579L1767 579L1767 574L1762 574z"/>
<path style="fill:#252526; stroke:none;" d="M61 582L61 590L75 590L75 582L61 582z"/>
<path style="fill:#e3e4e6; stroke:none;" d="M63.6227 584.023C58.9773 587.824 69.5006 590.331 72.3773 587.977C77.0227 584.176 66.4994 581.669 63.6227 584.023z"/>
<path style="fill:#252526; stroke:none;" d="M1889 584L1889 586L1902 586L1902 584L1889 584M1894 587L1890 594C1894.16 591.947 1895.82 591.676 1900 594C1898.66 590.583 1897.28 588.677 1894 587M1261 627.443C1252.9 628.818 1248.35 633.984 1247.29 642C1244.48 663.288 1247 686.52 1247 708C1247 716.384 1245.15 727.779 1250.65 734.892C1256.26 742.142 1267.97 740 1276 740L1327 740L1352 739.606C1361.5 737.421 1362.99 728.261 1363 720L1363 658C1363 650.044 1365.07 638.819 1359.36 632.34C1353.63 625.831 1343.6 628.553 1336 627.83C1312.9 625.632 1283.94 623.55 1261 627.443M1394 627.428C1388.03 628.285 1382.24 629.851 1379.73 636.001C1376.78 643.201 1378 652.409 1378 660L1378 707C1378 715.325 1375.98 727.823 1381.65 734.786C1387.43 741.872 1398.97 740 1407 740C1430.61 740 1457.77 743.755 1481 739.671C1491.88 737.76 1493.98 728.609 1494 719L1494 657C1494 649.418 1495.75 638.464 1490.43 632.214C1484.55 625.309 1473.04 627 1465 627C1441.96 627 1416.8 624.153 1394 627.428M1522 627.468C1512.97 629.22 1509.68 636.543 1509.09 645L1509 708C1509 716.063 1507.04 726.939 1511.97 733.895C1517.58 741.808 1528.59 740 1537 740L1587 740L1613 739.316C1623.73 736.755 1625 727.455 1625 718L1625 657C1625 649.497 1626.92 638.352 1621.57 632.213C1615.39 625.122 1604.36 627 1596 627C1572.54 627 1545.01 623.007 1522 627.468M1652 627.532C1640.57 630.256 1640 640.222 1640 650L1640 712C1640 720.717 1638.22 732.629 1647.04 737.91C1652.9 741.417 1661.47 740 1668 740L1713 740L1848 740L1888 740C1894.7 740 1902.59 741.125 1909 738.891C1920.15 735.007 1918.44 725.55 1919.09 716L1920 652C1920 642.96 1920.86 632.684 1911 628.367C1904.35 625.458 1895.12 627 1888 627L1839 627L1712 627C1693.38 627 1670.1 623.218 1652 627.532M47 628.653C37.1641 631.742 37 641.467 37 650L37 711C37 718.93 35.1115 729.58 41.2245 735.786C48.9306 743.61 64.0707 741 74 741L142 741C152.107 741 165.376 743.244 175 739.891C185.033 736.397 185.996 726.233 186 717L185 658C185 649.875 187.19 638.482 180.786 632.228C173.374 624.989 157.466 628 148 628L79 628C69.3001 628 56.2886 625.736 47 628.653M211 628.533C200.857 630.999 200.001 640.261 200 649L200 709C200 717.064 198.409 728.036 203.653 734.895C209.41 742.426 221.691 740 230 740C253.451 740 283.283 746.503 305.999 739.695C316.241 736.626 316 726.834 316 718L316 658C316 650.104 317.869 639.646 312.442 633.109C306.694 626.184 294.998 628 287 628L236 628L211 628.533M342 628.533C331.857 630.999 331.001 640.261 331 649L331 709C331 717.107 329.163 728.048 334.51 734.906C340.284 742.311 351.721 740 360 740L412 740C419.721 740 429.531 741.613 437 739.566C446.854 736.866 447 726.221 447 718L447 658C447 650.107 448.699 639.799 443.351 633.189C437.584 626.061 426.08 628 418 628L367 628L342 628.533M472 628.653C462.006 631.791 462 641.374 462 650L462 710C462 717.791 460.098 728.439 465.419 734.906C471.448 742.233 482.555 740 491 740L543 740C550.673 740 560.635 741.668 567.999 739.347C577.566 736.333 577.999 726.346 578 718L578 659C578 650.771 579.84 640.054 574.2 633.213C568.282 626.035 557.222 628 549 628L497 628C489.321 628 479.371 626.338 472 628.653M602.001 628.858C592.302 632.804 593 642.338 593 651L593 710C593 717.231 591.045 727.799 595.514 733.985C601.281 741.968 611.36 740 620 740L675 740C682.482 740 692.982 741.869 699.996 738.991C708.613 735.454 708.987 724.979 709 717L708.015 658C707.83 650.468 710.136 639.567 705.146 633.214C699.795 626.4 688.6 628 681 628L627 628C619.62 628 608.909 626.048 602.001 628.858M734 628.653C725.683 631.261 723.382 639.186 723.039 647L724 710C724 717.548 722.005 728.415 726.854 734.815C732.475 742.234 743.848 740 752 740L804 740C812.055 740 822.258 741.652 829.996 739.196C839.903 736.051 839 725.365 839 717L839 658C839 650.672 840.911 640.307 836.347 634.043C830.493 626.008 819.691 628 811 628L759 628C751.319 628 741.374 626.34 734 628.653M864.004 628.703C854.97 631.796 854.013 641.863 854 650L855 709C855 716.863 852.918 728.18 857.854 734.895C863.301 742.304 874.974 740 883 740L936 740C943.664 740 953.76 741.701 960.999 738.852C970.605 735.071 970 725.589 970 717L970 657C970 649.459 971.886 639.275 966.606 633.105C960.446 625.906 949.46 628 941 628L889 628C881.424 628 871.223 626.231 864.004 628.703M995.001 628.653C985.836 631.541 985.013 641.886 985 650L985 710C985 717.371 983.821 728.667 988.653 734.815C994.445 742.185 1005.76 740 1014 740L1066 740C1073.68 740 1083.63 741.662 1091 739.347C1100.84 736.258 1101 726.533 1101 718L1101 659C1101 651.556 1102.91 640.508 1098.41 634.043C1092.77 625.945 1081.52 628 1073 628L1020 628C1012.33 628 1002.36 626.332 995.001 628.653M1126 628.653C1116.43 631.67 1116 642.648 1116 651L1116 708C1116 716.011 1114.37 726.833 1119.01 733.906C1124.31 741.981 1135.73 740 1144 740L1198 740C1205.66 740 1215.76 741.701 1223 738.852C1232.45 735.134 1232 725.481 1232 717L1232 658C1232 650.12 1233.96 639.562 1228.61 633.044C1222.59 625.717 1211.47 628 1203 628L1151 628C1143.33 628 1133.36 626.332 1126 628.653z"/>
<path style="fill:#e3e4e6; stroke:none;" d="M376 631.424C366.285 632.7 345.801 627.707 338.228 634.434C333.088 639 335 648.837 335 655L335 711C335 717.347 332.942 727.87 338.228 732.566C343.674 737.404 356.195 735 363 735C385.293 735 412.192 739.151 433.999 734.656C443.906 732.614 442 721.674 442 714L442 659C442 652.289 443.847 642.034 440.062 636.109C436.538 630.593 428.717 631.002 423 631C407.621 630.994 391.251 629.422 376 631.424M552 631.424C532.52 633.982 511.648 632 492 632C485.579 632 473.618 629.725 468.225 633.742C462.066 638.33 464 649.36 464 656L464 712C464 718.45 462.246 728.805 468.225 733.258C473.778 737.394 486.375 735 493 735C515.213 735 541.175 738.757 563 734.772C575.998 732.398 571.014 715.951 571 707L571 657C571 651.064 572.806 641.461 569.682 636.188C566.161 630.246 557.905 630.649 552 631.424M770 631.424C759.881 632.753 738.092 627.448 730.228 634.434C724.942 639.13 727 649.653 727 656L727 712C727 718.176 725.198 727.913 730.279 732.566C735.59 737.432 748.29 735 755 735C777.293 735 804.192 739.151 825.999 734.656C835.906 732.614 834 721.674 834 714L834 659C834 652.31 835.921 641.927 832.142 636.055C828.526 630.436 821.848 631 816 631L770 631.424M997.001 631.533C987.129 633.945 989 644.053 989 652L989 708C989 714.412 986.916 725.392 990.742 730.891C995.258 737.382 1007.16 735 1014 735L1065 735C1072.34 735 1081.95 736.621 1088.98 734.347C1097.92 731.459 1096 720.339 1096 713L1096 657C1096 650.507 1097.84 640.546 1093.49 635.133C1088.29 628.675 1076.32 631 1069 631L1021 631L997.001 631.533M1127 631.573C1117.88 634.225 1118.96 644.508 1119 652L1120 709C1120 715.05 1117.98 725.663 1121.74 730.786C1126.46 737.219 1138.1 735 1145 735L1197 735C1203.83 735 1213.57 736.757 1220 734.258C1228.6 730.914 1227 720.382 1227 713L1227 657C1227 650.507 1228.84 640.546 1224.49 635.133C1219.29 628.675 1207.32 631 1200 631L1151 631C1143.56 631 1134.18 629.484 1127 631.573M1259 631.533C1249.24 633.936 1251 644.162 1251 652L1251 709C1251 715.138 1249.01 725.623 1252.74 730.867C1257.42 737.437 1270.03 735 1277 735L1327 735L1351 734.566C1360.04 732.048 1358 720.151 1358 713L1358 657C1358 650.683 1359.99 640.289 1355.57 635.148C1350.68 629.464 1337.78 632 1331 632C1308.61 632 1280.81 626.167 1259 631.533M1388.01 631.653C1378.94 634.577 1381 645.54 1381 653L1381 708C1381 714.575 1379.02 725.137 1383.01 730.786C1387.69 737.406 1400 735 1407 735L1458 735C1465.34 735 1475.07 736.647 1481.98 733.852C1490.35 730.469 1488 719.276 1488 712L1488 656C1488 649.771 1490.02 639.242 1485.57 634.228C1480.62 628.664 1468.7 631 1462 631L1412 631C1404.65 631 1395.06 629.385 1388.01 631.653M1519.02 631.742C1510.66 635.039 1513 646.888 1513 654L1513 708C1513 714.286 1511.08 724.497 1514.74 729.942C1519.48 736.978 1530.73 735 1538 735L1591 735C1598.36 735 1608.13 736.622 1614.96 733.347C1622.66 729.65 1621 719.017 1621 712L1621 656C1621 649.349 1622.7 639.52 1617.7 634.228C1612.49 628.723 1600.88 631 1594 631L1542 631C1535.2 631 1525.41 629.222 1519.02 631.742M1650.02 631.742C1641.66 635.039 1644 646.888 1644 654L1643 712C1643 719.239 1641.26 729.663 1649.04 733.682C1654.06 736.271 1661.53 735 1667 735L1706 735L1847 735L1890 735C1895.64 735 1903.84 736.477 1908.98 733.821C1916.72 729.829 1915 720.234 1915 713L1915 654C1915 646.86 1917.12 635.516 1908.96 632.009C1903.05 629.471 1894.32 631 1888 631L1843 631L1708 631L1668 631C1662.56 631 1655.15 629.718 1650.02 631.742M47.0046 632.742C38.1411 636.187 40 647.436 40 655L40 712C40 718.686 38.732 728.656 44.2284 733.682C50.2315 739.172 67.2763 736 75 736L145 736C153.899 736.003 165.443 739.475 173.985 736.106C182.353 732.806 180 721.161 180 714L180 657C180 650.998 182.128 639.984 177.682 635.279C171.505 628.74 154.24 632 146 632L77 632C68.2727 632 55.1881 629.561 47.0046 632.742M211.015 632.653C202.078 635.541 204 646.661 204 654L204 708C204 714.657 202.06 725.113 205.858 730.941C210.28 737.728 222.049 736 229 736L279 736C286.821 736 296.551 737.52 303.996 734.736C313.063 731.346 311 720.787 311 713L311 657C311 650.504 312.845 640.587 308.347 635.228C303.642 629.623 291.553 632 285 632L235 632C227.658 632 218.051 630.379 211.015 632.653M602.043 632.742C593.874 636.054 596 648.044 596 655L596 710C596 716.496 594.155 726.413 598.653 731.772C603.358 737.377 615.447 735 622 735L674 735C680.799 735 690.594 736.778 696.985 734.258C705.138 731.042 703 719.954 703 713L703 658C703 651.803 704.962 641.433 701.258 636.109C696.742 629.618 684.84 632 678 632L625 632C618.261 632 608.356 630.183 602.043 632.742M863.094 632.858C855.545 636.206 858 648.378 858 655L858 709C858 715.197 856.038 725.567 859.742 730.891C864.258 737.382 876.16 735 883 735L937 735C943.435 735 954.13 737.023 959.895 733.821C967.021 729.863 965 718.744 965 712L965 657C965 650.504 966.845 640.587 962.347 635.228C957.642 629.623 945.553 632 939 632L886 632C879.35 632 869.256 630.125 863.094 632.858z"/>
<path style="fill:#252526; stroke:none;" d="M1304 654L1305 658L1307 654L1304 654M1435 655L1435 659L1438 658L1438 656L1437 655L1435 655M249 656L262 665C257.212 665.854 251.736 667.823 249 672L265 665L265 663L249 656M1559 660L1559 662L1576 662L1576 660L1559 660M1301 675C1304.85 673.685 1305.91 670.759 1307 667C1303.44 668.849 1302.13 671.195 1301 675M1435 667C1434.86 669.453 1434.93 669.677 1437 671L1437 667L1435 667M510 668L514.988 681C514.893 685.711 509.246 690.97 507 695L508 696L517 684L529 696C527.116 691.52 520.995 685.946 521.149 681L528 669C523.323 670.517 521.035 674.718 519 679L510 668M659 691C655.088 692.447 650.899 694.239 647.109 691.447C640.99 686.939 641.585 674.43 649.018 671.423C652.291 670.099 655.858 672.112 659 673C651.337 658.764 634.657 678.019 642.009 689.985C645.611 695.846 656.206 699.151 659 691M771 668C772.563 675.554 775.01 690.959 782 695L791 668C785.187 671.544 783.136 683.685 781 690C777.182 683.852 776.873 672.098 771 668M904 695C911.843 695 928.604 688.942 915 681C919.893 674.192 913.802 662.539 905.603 669.028C901.238 672.483 904 689.718 904 695M379 670L378 671C383.201 680.772 386 686.805 386 698L388 698C388 686.487 393.966 680.549 396 670L386 681C384.615 676.625 382.501 672.979 379 670z"/>
<path style="fill:#e3e4e6; stroke:none;" d="M907 670L907 680C916.594 679.473 916.594 670.527 907 670z"/>
<path style="fill:#252526; stroke:none;" d="M1032 670L1032 698L1034 698L1034 676C1040.57 681.433 1045.86 690.567 1050 698L1052 698C1054.45 689.715 1053 679.614 1053 671L1050 671L1050 692L1034 670L1032 670M1163 670L1159 697L1161 697L1165 674C1167.37 678.839 1167.96 693.071 1172.53 695.824C1174.95 697.281 1175.97 693.537 1176.41 691.981L1181 673C1184.49 679.502 1185.4 689.629 1186 697L1188 697C1187.81 692.578 1187.25 672.33 1182.68 670.752C1178.05 669.156 1174.49 689.655 1174 693C1170.84 686.714 1170.87 671.366 1163 670z"/>
<path style="fill:#e3e4e6; stroke:none;" d="M906 682L906 693C919.229 692.962 919.342 682.01 906 682z"/>
<path style="fill:#252526; stroke:none;" d="M54 705L61 705C61 707.927 60.0893 712.949 62.0278 715.397C69.6414 725.01 75.9993 711.02 76 705L82 705C74.6124 689.158 62.1215 690.818 54 705M1873 705C1882.07 705.692 1876.66 712.054 1881.6 715.972C1891.19 723.567 1895 711.856 1895 705L1902 705C1892.78 691.911 1881.01 687.832 1873 705z"/>
<path style="fill:#e3e4e6; stroke:none;" d="M68 693L57 704L63 704L63 715L74 715L74 704L79 704C76.6915 699.262 72.2812 695.98 68 693M1876 704L1882 704L1882 715L1893 715L1893 704L1899 704C1892.37 692.425 1882.45 691.916 1876 704z"/>
<path style="fill:#252526; stroke:none;" d="M248 706L248 708L264 715C260.452 711.16 255.786 708.993 251 707L264 700C259.073 699.179 252.271 703.57 248 706M1562 703L1571 704L1571 702L1562 703M1304 710L1301 718C1304.15 716.093 1305.03 713.495 1306 710L1304 710M1434 710L1434 714L1437 714L1437 710L1434 710M1748 754.424C1732.05 756.519 1715.08 755 1699 755C1692.31 755 1683.75 753.452 1678.19 757.943C1670.43 764.207 1673 777.179 1673 786L1672 856C1672 864.375 1670.24 876.507 1678.1 882.121C1685.1 887.113 1696.89 885 1705 885C1727.34 885 1753.01 888.536 1775 884.671C1794.27 881.285 1788 850.199 1788 836L1788.04 781C1787.73 773.957 1789.82 764.917 1784.61 759.214C1777.14 751.05 1757.95 753.118 1748 754.424M48 755.653C35.945 759.434 38 772.065 38 782L38 851C38 859.2 35.5706 871.981 40.6528 878.957C46.5071 886.992 57.309 885 66 885L118 885C126.067 885 136.246 886.64 143.999 884.196C155.324 880.627 154 867.417 154 858L153 791C153 782.723 155.54 769.299 150.991 762.04C145.566 753.384 134.751 755 126 755L73 755C65.3195 755 55.374 753.34 48 755.653M179 755.638C166.706 759.198 168 771.799 168 782L168 849C168 858.101 165.867 870.883 171.008 878.957C176.35 887.345 186.709 884.307 195 885.285L246 886C254.987 886 265.359 887.424 273.996 884.532C285.873 880.555 284 868.072 284 858L284 791C284 782.348 286.298 769.595 281.272 762.015C275.571 753.417 264.932 755 256 755L204 755C196.215 755 186.519 753.461 179 755.638M312 755.44C299.383 757.492 299 767.422 299 778L299 849C299 857.846 296.498 871.172 301.483 878.907C306.909 887.327 318.305 886 327 886C350.612 886 377.765 889.754 401 885.671C410.371 884.025 414.761 877.02 414.985 868L415 792C415 782.615 417.397 769.085 411.348 761.094C405.319 753.131 393.75 755 385 755C361.503 755 335.182 751.669 312 755.44M440 755.653C429.307 759.007 429.001 770.712 429 780L430 851C430 859.074 427.521 872.121 432.514 878.981C439.378 888.413 455.793 884.984 466 885L537 886C546.938 886 559.563 888.028 568.985 884.336C579.808 880.096 578 867.389 578 858L578 787C578 778.234 580.263 766.241 573.471 759.394C565.998 751.86 549.641 755 540 755L472 755C462.298 755 449.292 752.738 440 755.653M603.001 755.819C591.182 760.107 593 772.889 593 783L593 859C593 869.116 591.982 881.427 604 885.196C616.969 889.264 635.438 886 649 886L745 886L1069 885L1180 885C1192.21 885 1214.24 889.216 1224.98 882.91C1234.3 877.446 1232 864.109 1232 855L1232 781C1232 771.055 1233.37 758.542 1221 755.533C1207.38 752.222 1190.01 755 1176 755L1081 755L779 755L657 755C641.413 755 617.646 750.505 603.001 755.819M1257 755.703C1246 759.442 1247 772.641 1247 782L1247 851C1247 859.739 1244.69 872.54 1250.51 879.895C1257.15 888.294 1273.53 885 1283 885L1354 885C1363.58 885 1376.94 887.381 1385.99 884.03C1396.51 880.132 1396 867.305 1396 858L1396 787C1396 778.314 1398.26 766.124 1391.61 759.275C1384.43 751.885 1368.35 755 1359 755L1289 755C1279.43 755 1266.1 752.61 1257 755.703M1420 755.858C1408.89 760.378 1411 773.376 1411 783L1411 852C1411 860.126 1408.65 872.893 1413.88 879.787C1419.41 887.08 1431.04 885 1439 885L1492 885C1499.5 885 1509.96 886.855 1517 883.991C1528.12 879.464 1526 866.686 1526 857L1527 790C1527 781.085 1529.17 768.866 1524.01 761.044C1518.91 753.333 1507.98 755 1500 755L1445 755C1437.62 755 1426.91 753.047 1420 755.858z"/>
<path style="fill:#e3e4e6; stroke:none;" d="M1763 758.424C1744.16 760.898 1724 759 1705 759C1698.37 759 1686.78 756.795 1681.11 760.742C1672.31 766.863 1677 794.264 1677 804C1677 807.471 1675.49 815.515 1679.32 817.397C1685.74 820.556 1698.88 818 1706 818L1761 817.039L1781.77 816.682C1787.59 814.897 1785 798.828 1785 794C1785 775.203 1788.21 755.115 1763 758.424M49.0039 759.653C38.6331 762.949 41 776.57 41 785L41 848C41 855.582 38.6183 868.134 42.179 874.981C46.3621 883.026 57.5112 881 65 881L118 881C125.007 881 135.398 882.917 141.957 880.258C150.88 876.64 148 861.561 148 854L148 790C148 782.827 150.375 770.336 145.991 764.225C141.425 757.86 129.753 760 123 760L71 760C64.15 760 55.5823 757.562 49.0039 759.653M387 759.425C368.122 761.813 348.03 760 329 760C322.323 760 310.88 757.803 305.533 762.653C299.668 767.971 302 779.885 302 787L303 853C303 860.318 300.198 874.45 307.109 879.258C312.954 883.324 325.161 881 332 881C353.89 881 379.494 884.711 400.999 880.772C414.812 878.241 409.115 857.374 409.004 848L409 788C409 781.374 411.205 769.782 407.258 764.109C403.517 758.732 392.881 758.681 387 759.425M1347 759.424C1325.6 762.235 1302.59 760 1281 760C1273.95 760 1261.12 757.557 1255.11 761.742C1248.33 766.457 1251 779.838 1251 787L1251 855C1251 862.001 1248.59 874.313 1255.21 878.991C1262.57 884.187 1279.31 881 1288 881L1351 881L1382 880.656C1389.2 879.172 1389.99 873.259 1390 867L1390 830L1390 781C1390 775.467 1391.55 766.953 1387.35 762.573C1380.4 755.337 1356.15 758.223 1347 759.424M1421 759.653C1411 762.835 1414 776.853 1414 785L1414 849C1414 856.27 1411.69 868.412 1415.18 874.956C1419.35 882.792 1430.66 881 1438 881L1490 880C1497.32 880 1508.11 881.986 1514.98 879.258C1523.94 875.698 1521 860.589 1521 853L1521 787C1521 780.071 1523.32 767.874 1518.49 762.228C1513.7 756.633 1501.6 759 1495 759L1445 759C1437.63 759 1428.07 757.404 1421 759.653M178.015 760.742C168.678 764.423 171 778.112 171 786L172 851C172 858.24 169.658 870.622 173.858 876.891C178.225 883.409 190.245 881 197 881L249 881C255.835 881 265.558 882.752 271.996 880.258C281.865 876.434 279 862.338 279 854L279 790C279 782.32 281.056 770.722 276.272 764.109C271.601 757.651 259.95 760 253 760L201 760C194.201 760 184.407 758.223 178.015 760.742M440.015 760.742C431.274 764.19 433 778.459 433 786L433 852C433 859.361 430.638 871.715 435.653 877.775C441.788 885.191 458.442 882 467 882L536 882C544.727 882 557.812 884.438 565.995 881.258C575.544 877.546 573 864.068 573 856L573 790C573 782.822 575.472 770.013 570.427 764.228C564.709 757.672 546.973 761 539 761L469 760C460.581 760 447.899 757.633 440.015 760.742M603.005 760.742C593.67 764.37 596 777.093 596 785L597 855C597 862.694 593.955 877.685 603.015 881.258C614.113 885.634 633.088 882 645 882L742 882L1072 882L1180 882C1190.84 882 1212.66 886.141 1221.89 879.991C1229.31 875.047 1227 862.616 1227 855L1227 786C1227 777.696 1229.62 763.357 1219 760.434C1206.13 756.89 1188.35 760 1175 760L1080 760L771 760L653 760C638.874 760 616.163 755.628 603.005 760.742z"/>
<path style="fill:#252526; stroke:none;" d="M1731 775L1726 787L1737 787C1735.54 782.679 1734.21 778.304 1731 775M1501 776L1501 790C1502.67 786.028 1502.67 779.972 1501 776M326 777L326 791C327.667 787.028 327.667 780.972 326 777M1506 778L1506 790L1508 778L1506 778M331 779L331 791L333 779L331 779M1498 789L1498 781C1488.29 779.508 1488.29 790.492 1498 789M323 790L323 782C313.515 780.747 313.314 791.489 323 790z"/>
<path style="fill:#e3e4e6; stroke:none;" d="M1495 789C1497.99 778.577 1487.11 784.63 1495 789M320 790L321 783C316.001 783.869 315.688 787.601 320 790z"/>
<path style="fill:#252526; stroke:none;" d="M1552 818.653C1547.72 819.997 1543.82 823.667 1542.51 828L1542 841C1542 851.801 1537.55 874.842 1547.19 882.146C1553.58 886.995 1564.45 885 1572 885L1623 885C1630.66 885 1640.76 886.701 1648 883.852C1652.27 882.172 1655.57 878.492 1656.61 874L1657 861C1657 849.744 1661.36 828.064 1650.98 820.653C1644.27 815.861 1632.83 818 1625 818L1576 818C1568.61 818 1559.1 816.424 1552 818.653M1813 818.653C1797.5 823.539 1802.94 853.642 1803 866C1803.03 871.489 1803.67 877.588 1808.21 881.351C1814.92 886.897 1825.95 885 1834 885L1884 885C1891.75 885 1901.63 886.604 1909 883.867C1913.56 882.17 1916.79 878.653 1918.2 873.999L1919 860C1919 848.914 1923.28 827.682 1912.95 820.344C1906.46 815.741 1894.6 818 1887 818L1837 818C1829.62 818 1820.09 816.418 1813 818.653z"/>
<path style="fill:#e3e4e6; stroke:none;" d="M1783 821L1705 821C1698.68 821 1681.73 817.989 1676.74 822.028C1673.71 824.478 1675 831.583 1675 835L1675.91 864C1676.23 868.684 1675.17 873.944 1679.23 877.347C1684.75 881.984 1695.3 880 1702 880L1758 880C1764.11 879.99 1777.02 880.918 1781.11 875.656C1784.13 871.767 1783.94 863.748 1784 859L1783 821M1817 821.479C1801.63 824.658 1807 850.307 1807 862C1807 867.587 1805.99 874.526 1811.19 878.258C1816.9 882.354 1829.26 880 1836 880L1884 880L1907 879.566C1910.63 878.567 1913.57 875.635 1914.57 871.999C1917.53 861.204 1915.53 845.184 1914.96 834C1914.75 829.925 1913.48 826.015 1909.95 823.603C1903.97 819.526 1891 822 1884 822C1862.62 822 1838.09 817.117 1817 821.479M1553 822.653C1549.46 823.781 1546.91 826.307 1546.23 830.004C1544.18 841.074 1544.95 853.743 1545 865C1545.02 869.708 1545.26 874.958 1549.34 878.107C1555.23 882.656 1566.05 881 1573 881L1624 881C1630.85 881 1640.56 882.737 1646.96 879.991C1650.73 878.37 1652.5 874.934 1652.9 871C1654.04 859.574 1655.08 844.306 1653.8 833C1653.36 829.198 1651.21 825.815 1647.98 823.742C1642 819.896 1630.86 822 1624 822L1576 822C1568.92 822 1559.8 820.491 1553 822.653z"/>
<path style="fill:#252526; stroke:none;" d="M541 846L541 853C527.857 855.684 541.527 868.071 543 855L549 855C549.694 859.442 557.703 865.216 557.704 858C557.704 853.743 550.536 853.754 551.752 849.128L558.079 842.872C559.011 836.464 550.476 838.765 550 845L543 845C541.984 831.681 528.066 845.001 541 846M1273 847L1273 854C1258.67 855.601 1273.01 868.817 1274 856L1281 856C1282.5 869.111 1296.23 856.065 1283 854L1283 848C1296.1 846.524 1283.64 833.255 1281 846L1275 846C1272.98 833.038 1259.65 846.26 1273 847z"/>
<path style="fill:#e3e4e6; stroke:none;" d="M541 845L541 840C536.008 840.832 536.008 844.168 541 845M551 845C554.864 844.7 556.348 843.911 557 840C553.136 840.3 551.652 841.089 551 845M1267 842C1268.29 845.205 1269.6 845.732 1273 846C1272.34 842.048 1270.89 841.114 1267 842M1283 846C1292.22 845.282 1284.36 837.856 1283 846z"/>
<path style="fill:#252526; stroke:none;" d="M211 844L211 862L213 862L213 844L211 844M487 844L487 851C475.504 848.534 476.121 861.958 488 862C488 856.368 489.191 849.222 487 844M57 845L56 862L58 862C58.0029 858.268 57.697 855.04 60 852L60 850C58.7571 848.097 58.7571 847.903 60 846L57 845M1377 845L1377 851C1365.85 848.701 1366.7 861.866 1378 862C1378 856.638 1379.09 849.974 1377 845M197 846L197 861L199 861C199.003 856.287 201.084 849.151 197 846M1595 850L1595 852L1607 856L1607 846L1595 850M1857 846L1857 856L1869 851L1857 846z"/>
<path style="fill:#e3e4e6; stroke:none;" d="M543 847L543 853L550 853L550 847L543 847M1274 848L1274 854L1281 854L1281 848L1274 848z"/>
<path style="fill:#252526; stroke:none;" d="M193 861C187.55 858.081 184.807 852.307 193 851L193 849C183.288 849.739 183.175 862.826 193 861M207 849C202.646 852.143 203.003 855.979 203 861L205 861L207 849M455 861C449.123 858.257 446.863 852.29 455 851C447.069 845.602 442.967 863.925 455 861M1344 862L1344 860C1337.12 858.877 1337.8 852.801 1344 851C1337.31 846.628 1332.46 861.122 1344 862M1348 862L1351.01 853.377C1355.03 847.732 1355.99 860.192 1356 862C1359.49 853.709 1362.99 849.054 1363 862L1365 862L1363.82 852.319C1361.64 849.056 1351.69 848.128 1349.32 851.515C1347.37 854.297 1348 858.791 1348 862M1482 849L1482 851C1490.25 851.27 1488.65 857.311 1494.39 860.972C1498.22 863.413 1505.61 862 1510 862L1496.22 859.397C1489.36 856.353 1491.64 849.114 1482 849M63 850L62 862L64 862C64.0364 851.708 69.9636 851.708 70 862L72 862C71.9948 854.193 71.3881 850.644 63 850M315 852C323.211 851.091 321.14 857.467 326.419 860.972C330.144 863.446 337.689 862 342 862L329.214 860.397C324.798 858.467 321.841 844.171 315 852M328 850L328 852L342 852L342 850L328 850M458 862L460 862C460.009 850.99 465.962 851.142 466 862C469.488 853.709 472.99 849.054 473 862L475 862L473.972 852.319C471.935 849.28 461.513 848.663 459.179 851.603C457.174 854.13 458 858.986 458 862M1495 850L1510 851L1495 850z"/>
<path style="fill:#e3e4e6; stroke:none;" d="M482.274 852.256C478.537 853.984 480.22 862.361 484.585 859.863C487.917 857.957 486.468 850.316 482.274 852.256M1372.3 852.176C1368.66 853.957 1370.48 861.889 1374.7 859.824C1378.34 858.043 1376.52 850.112 1372.3 852.176z"/>
<path style="fill:#252526; stroke:none;" d="M1727 851C1727.69 855.6 1728.97 860.359 1733 863L1737 851L1727 851z"/>
<path style="fill:#e3e4e6; stroke:none;" d="M541 855C532.866 856.353 540.3 863.763 541 855M551 855C552.42 863.876 560.218 855.719 551 855M1273 856C1263.78 856.718 1271.64 864.144 1273 856M1282 856C1282.94 860.294 1284.84 861.123 1289 860C1287.26 856.832 1285.56 856.269 1282 856z"/>
</svg>
