<svg xmlns="http://www.w3.org/2000/svg" xmlns:xlink="http://www.w3.org/1999/xlink" version="1.1" id="Layer_1" x="0px" y="0px" width="100px" height="83px" viewBox="5.0 -8.3 100.0 112.05" enable-background="new 0 0 100 83" xml:space="preserve">
<path d="M99.981,2.312C99.884,1.021,98.816,0,97.5,0h-95C1.184,0,0.116,1.021,0.019,2.312L0,66.5C0,67.881,1.119,69,2.5,69h95  c1.381,0,2.5-1.119,2.5-2.5L99.981,2.312z M96,57H4V4h92V57z"/>
<path d="M66,81c-4-1-5-4-5-8v-1H50H39v1c0,4-1,7-5,8c-0.97,0.242-1,2,0,2h16h16C67,83,66.97,81.242,66,81z"/>
<text x="0.0" y="97.525" font-size="4.15" font-weight="bold" font-family="Helvetica Neue, Helvetica, Arial-Unicode, Arial, Sans-serif" fill="#000000">Created by Edward Boatman</text><text x="0.0" y="101.675" font-size="4.15" font-weight="bold" font-family="Helvetica Neue, Helvetica, Arial-Unicode, Arial, Sans-serif" fill="#000000">from the Noun Project</text></svg>