<svg xmlns="http://www.w3.org/2000/svg" xmlns:xlink="http://www.w3.org/1999/xlink" version="1.1" id="Layer_1" x="0px" y="0px" viewBox="5.0 -10.0 100.0 135.0" enable-background="new 0 0 100 100" xml:space="preserve" height="100px" width="100px">
<path d="M50.434,89.748c-1.811,0.958-3.548,2.169-5.474,2.801c-1.492,0.489-3.284,0.566-4.832,0.263  c-2.062-0.403-3.813-1.578-4.449-3.796c1.32-3.007,4.277-0.766,6.105-2.036c1.69-1.174,3.411-2.305,5.075-3.426  c1.018-3.511,2.761-6.71,1.079-10.31c1.732-4.155-0.19-8.424,0.369-12.626c0.131-0.982-0.12-2.05-0.367-3.036  c-0.193-0.771-0.652-1.475-1.116-2.475c-1.662,0.106-3.238,0.207-4.974,0.318c-1.831-2.065-2.525-4.42-0.198-7.152  c1.876-0.168,3.899-0.349,5.999-0.537c-0.389-8.728-0.654-17.168,0.561-25.281c-0.129-0.695-0.186-1.104-0.281-1.503  c-1.165-4.893-4.643-7.511-8.972-9.492c-2.187-1.001-4.549-1.948-6.263-4.127C33.214,6.54,33.649,5.876,34.223,5  c6.025,0.378,9.88,4.651,14.537,8.192c3.389-1.686,6.847-3.47,10.365-5.129c1.668-0.786,3.409-1.501,5.194-1.918  c0.839-0.196,1.859,0.388,3.101,0.692c-0.726,1.443-1.273,2.532-1.881,3.74c-1.397,0.678-2.894,1.354-4.345,2.117  c-6.954,3.652-6.95,3.66-10.615,11.729c1.197,2.907,1.322,6.195,0.589,9.478c-0.9,4.034,1.546,7.694,0.648,11.776  c2.554,1.275,4.748,2.371,6.943,3.467c1.971,2.388-0.718,4.095-0.485,6.294c-1.815-0.088-3.211-0.156-4.827-0.235  c-1.065,2.661-1.049,5.291-0.95,7.957c0.147,3.923,0.192,7.849,0.3,11.773c0.029,1.038,0.128,2.075,0.201,3.112  c0.466,6.59,3.796,10.001,10.527,10.772c1.021,0.117,2.046,0.198,3.439,0.331c-0.323,1.956-0.61,3.69-0.967,5.852  C60.702,93.455,54.995,93.494,50.434,89.748z"/>
<text x="0.0" y="117.5" font-size="5.0" font-weight="bold" font-family="Helvetica Neue, Helvetica, Arial-Unicode, Arial, Sans-serif" fill="#000000">Created by Christopher T. Howlett</text><text x="0.0" y="122.5" font-size="5.0" font-weight="bold" font-family="Helvetica Neue, Helvetica, Arial-Unicode, Arial, Sans-serif" fill="#000000">from the Noun Project</text></svg>